G04 ================== begin FILE IDENTIFICATION RECORD ==================*
G04 Layout Name:  C:/SAFELIGHT/LIGHTSENSOR/allegro/SAFELIGHT1_5.brd*
G04 Film Name:    BOTTOM*
G04 File Format:  Gerber RS274X*
G04 File Origin:  Cadence Allegro 17.2-S078*
G04 Origin Date:  Thu Apr 27 18:31:00 2023*
G04 *
G04 Layer:  BOARD GEOMETRY/DESIGN_OUTLINE*
G04 Layer:  ETCH/BOTTOM*
G04 Layer:  PIN/BOTTOM*
G04 Layer:  VIA CLASS/BOTTOM*
G04 *
G04 Offset:    (0.0000 0.0000)*
G04 Mirror:    No*
G04 Mode:      Positive*
G04 Rotation:  0*
G04 FullContactRelief:  No*
G04 UndefLineWidth:     0.0100*
G04 ================== end FILE IDENTIFICATION RECORD ====================*
%FSLAX25Y25*MOIN*%
%IR0*IPPOS*OFA0.00000B0.00000*MIA0B0*SFA1.00000B1.00000*%
%ADD10C,.023622*%
%ADD13O,.055118X.082681*%
%ADD17C,.03937*%
%ADD15C,.04*%
%ADD11R,.07874X.07874*%
%ADD16R,.04X.04*%
%ADD14C,.055429*%
%ADD12C,.066*%
%ADD18C,.005906*%
%ADD19C,.009843*%
%ADD20C,.005*%
%ADD21C,.000394*%
%ADD23C,.049386*%
%ADD24C,.065449*%
%ADD22C,.076016*%
G75*
%LPD*%
G75*
G36*
G01X-409449Y-290748D02*
X-207874D01*
Y-389370D01*
X-409449D01*
Y-290748D01*
G37*
%LPC*%
G75*
G36*
G01X-400304Y-350984D02*
Y-343110D01*
G02X-399803Y-342609I501J0D01*
G01X-391929D01*
G02X-391428Y-343110I0J-501D01*
G01Y-350984D01*
G02X-391929Y-351485I-501J0D01*
G01X-399803D01*
G02X-400304Y-350984I0J501D01*
G37*
G36*
G01Y-341142D02*
Y-333268D01*
G02X-399803Y-332767I501J0D01*
G01X-391929D01*
G02X-391428Y-333268I0J-501D01*
G01Y-341142D01*
G02X-391929Y-341643I-501J0D01*
G01X-399803D01*
G02X-400304Y-341142I0J501D01*
G37*
G36*
G01X-393414Y-385039D02*
Y-382283D01*
G02X-386901I3257J0D01*
G01Y-385039D01*
G02X-393414I-3257J0D01*
G37*
G36*
G01X-362312D02*
Y-382283D01*
G02X-355798I3257J0D01*
G01Y-385039D01*
G02X-362312I-3257J0D01*
G37*
G36*
G01X-315166Y-378637D02*
Y-373726D01*
G02X-316052Y-372244I796J1481D01*
G02X-312688I1682J0D01*
G02X-313574Y-373726I-1682J0D01*
G01Y-378637D01*
G02X-312688Y-380118I-796J-1481D01*
G02X-316052I-1682J0D01*
G02X-315166Y-378637I1682J0D01*
G37*
G36*
G01X-293003Y-374149D02*
X-296590Y-370562D01*
X-296685Y-370571D01*
G02X-296850Y-370580I-167J1674D01*
G02X-295169Y-368898I0J1682D01*
G02X-295177Y-369063I-1682J1D01*
G01X-295186Y-369158D01*
X-291599Y-372745D01*
X-291504Y-372736D01*
G02X-291339Y-372728I167J-1674D01*
G02X-293020Y-374409I0J-1682D01*
G02X-293012Y-374244I1682J-1D01*
G01X-293003Y-374149D01*
G37*
G36*
G01X-288031Y-372150D02*
X-292524Y-367657D01*
X-292632Y-367682D01*
G02X-293012Y-367725I-379J1639D01*
G02X-291330Y-366043I0J1682D01*
G02X-291373Y-366423I-1682J0D01*
G01X-291398Y-366531D01*
X-286905Y-371024D01*
X-286797Y-370999D01*
G02X-286417Y-370956I379J-1639D01*
G02X-288099Y-372638I0J-1682D01*
G02X-288056Y-372258I1682J0D01*
G01X-288031Y-372150D01*
G37*
G36*
G01X-366359Y-358276D02*
G02X-367717Y-358965I-1357J993D01*
G02Y-355602I0J1682D01*
G02X-366359Y-356291I0J-1682D01*
G01X-362775D01*
G02X-361417Y-355602I1357J-993D01*
G02Y-358965I0J-1682D01*
G02X-362775Y-358276I0J1682D01*
G01X-366359D01*
G37*
G36*
G01X-262141Y-347253D02*
X-273715D01*
G02X-275197Y-348139I-1481J796D01*
G02Y-344775I0J1682D01*
G02X-273715Y-345661I0J-1682D01*
G01X-261811D01*
G02X-261248Y-345894I0J-797D01*
G01X-258492Y-348650D01*
G02X-258259Y-349213I-563J-563D01*
G01Y-360723D01*
G02X-257373Y-362205I-796J-1481D01*
G02X-260737I-1682J0D01*
G02X-259851Y-360723I1682J0D01*
G01Y-349543D01*
X-262141Y-347253D01*
G37*
G36*
G01X-274109Y-343316D02*
G02X-275591Y-344202I-1481J796D01*
G02Y-340838I0J1682D01*
G02X-274109Y-341724I0J-1682D01*
G01X-263096D01*
G02X-261614Y-340838I1481J-796D01*
G02Y-344202I0J-1682D01*
G02X-263096Y-343316I0J1682D01*
G01X-274109D01*
G37*
G36*
G01X-297731Y-340166D02*
G02X-299213Y-341052I-1481J796D01*
G02Y-337688I0J1682D01*
G02X-297731Y-338574I0J-1682D01*
G01X-295576D01*
G02X-294094Y-337688I1481J-796D01*
G02Y-341052I0J-1682D01*
G02X-295576Y-340166I0J1682D01*
G01X-297731D01*
G37*
G36*
G01X-276865Y-337017D02*
G02X-278346Y-337902I-1481J796D01*
G02Y-334539I0J1682D01*
G02X-276865Y-335424I0J-1682D01*
G01X-255812D01*
G02X-254331Y-334539I1481J-796D01*
G02Y-337902I0J-1682D01*
G02X-255812Y-337017I0J1682D01*
G01X-276865D01*
G37*
G36*
G01X-302259Y-326583D02*
G02X-303740Y-327469I-1481J796D01*
G02Y-324106I0J1682D01*
G02X-302259Y-324991I0J-1682D01*
G01X-294985D01*
G02X-293504Y-324106I1481J-796D01*
G02Y-327469I0J-1682D01*
G02X-294985Y-326583I0J1682D01*
G01X-302259D01*
G37*
G36*
G01X-271944Y-320678D02*
G02X-273425Y-321564I-1481J796D01*
G02Y-318200I0J1682D01*
G02X-271944Y-319086I0J-1682D01*
G01X-260733D01*
G02X-259252Y-318200I1481J-796D01*
G02Y-321564I0J-1682D01*
G02X-260733Y-320678I0J1682D01*
G01X-271944D01*
G37*
G36*
G01X-249981Y-302189D02*
Y-301406D01*
G02X-249480Y-300905I501J0D01*
G01X-245480D01*
G02X-244980Y-301406I0J-501D01*
G01Y-305406D01*
G02X-245480Y-305906I-501J0D01*
G01X-246263D01*
Y-306218D01*
X-246168Y-306276D01*
G02X-244980Y-308406I-1313J-2129D01*
G02X-247480Y-310906I-2501J0D01*
G02X-249635Y-309674I0J2501D01*
G03X-250325I-345J-203D01*
G02X-254635I-2155J1268D01*
G03X-255325I-345J-203D01*
G02X-259635I-2155J1268D01*
G03X-260325I-345J-203D01*
G02X-264635I-2155J1268D01*
G03X-265325I-345J-203D01*
G02X-267480Y-310906I-2155J1268D01*
G02X-269981Y-308406I0J2501D01*
G02X-268749Y-306250I2501J0D01*
G03Y-305561I-203J345D01*
G02X-269981Y-303406I1268J2155D01*
G02X-267480Y-300905I2501J0D01*
G02X-265325Y-302137I0J-2501D01*
G03X-264635I345J203D01*
G02X-260325I2155J-1268D01*
G03X-259635I345J203D01*
G02X-255325I2155J-1268D01*
G03X-254635I345J203D01*
G02X-252480Y-300905I2155J-1268D01*
G02X-250351Y-302093I0J-2501D01*
G01X-250293Y-302189D01*
X-249981D01*
G37*
G54D23*
X-232756Y-323425D03*
X-222756D03*
G54D24*
X-322244Y-307874D03*
Y-323622D03*
G54D22*
X-373071Y-302559D03*
X-383071D03*
X-393071D03*
%LPD*%
G75*
G54D10*
X-400984Y-371063D03*
X-380512Y-368504D03*
X-380028Y-364961D03*
X-367717Y-357283D03*
X-361417D03*
X-371260Y-327362D03*
X-367717Y-331693D03*
X-373327Y-319587D03*
X-370268Y-323031D03*
X-350000Y-375386D03*
X-354528Y-330118D03*
X-350197Y-333465D03*
X-346260Y-322244D03*
X-329331Y-380118D03*
X-328425Y-372323D03*
X-331693Y-346457D03*
X-332087Y-354331D03*
X-338386D03*
X-314370Y-380118D03*
X-321850Y-377165D03*
X-314370Y-372244D03*
X-313189Y-331693D03*
X-296850Y-368898D03*
X-308071Y-360630D03*
X-304232Y-364075D03*
X-299213Y-339370D03*
X-294094D03*
X-308465Y-335630D03*
X-293504Y-325787D03*
X-303740D03*
X-278150Y-378543D03*
X-293012Y-366043D03*
X-286417Y-372638D03*
X-291339Y-374409D03*
X-290157Y-347728D03*
X-278346Y-336220D03*
X-292035Y-333071D03*
X-288976Y-337795D03*
X-285638Y-314961D03*
X-272244Y-378543D03*
X-264567Y-384252D03*
X-275197Y-346457D03*
X-266929Y-354331D03*
X-270472D03*
X-263386Y-350787D03*
X-270472D03*
X-266929Y-357874D03*
X-270472D03*
X-263386D03*
Y-354331D03*
X-266929Y-350787D03*
X-261614Y-342520D03*
X-275591D03*
X-273425Y-319882D03*
X-262992Y-325394D03*
X-259055Y-362205D03*
X-244094Y-362598D03*
Y-369488D03*
X-254528Y-371654D03*
X-254331Y-336220D03*
X-246260Y-331890D03*
X-258661Y-326575D03*
X-259252Y-319882D03*
X-236417Y-363780D03*
X-239370Y-366535D03*
X-236024Y-352756D03*
X-233465Y-349803D03*
Y-343898D03*
X-236024Y-340945D03*
X-219882Y-363780D03*
X-225984D03*
X-223031Y-366732D03*
X-210827Y-368110D03*
G54D20*
G01X-252559Y-300394D02*
X-252480Y-300472D01*
G54D11*
X-395866Y-347047D03*
Y-337205D03*
G54D21*
G01X-409449Y-290748D02*
Y-389370D01*
X-180512D01*
Y-290748D01*
X-409449D01*
G54D12*
X-393071Y-302559D03*
X-373071D03*
X-383071D03*
G54D13*
X-390157Y-383661D03*
X-359055D03*
G54D14*
X-322244Y-307874D03*
Y-323622D03*
G54D15*
X-267480Y-303406D03*
X-262480Y-308406D03*
Y-303406D03*
X-267480Y-308406D03*
X-257480D03*
Y-303406D03*
X-252480Y-308406D03*
Y-303406D03*
X-247480Y-308406D03*
G54D16*
Y-303406D03*
G54D17*
X-232756Y-323425D03*
X-222756D03*
G54D18*
G01X-395866Y-347047D02*
Y-342409D01*
G01Y-347047D02*
X-400504D01*
G01X-395866D02*
Y-351685D01*
G01Y-347047D02*
X-390945D01*
G01X-314370Y-372244D02*
Y-380118D01*
G01X-294094Y-339370D02*
X-299213D01*
G01X-303740Y-325787D02*
X-293504D01*
G01X-293012Y-366043D02*
X-286417Y-372638D01*
G01X-278346Y-336220D02*
X-254331D01*
G01X-275197Y-346457D02*
X-261811D01*
X-259055Y-349213D01*
Y-362205D01*
G01X-261614Y-342520D02*
X-275591D01*
G01X-259252Y-319882D02*
X-273425D01*
G01X-267480Y-300705D02*
Y-303406D01*
G01D02*
X-270181D01*
G01X-257480D02*
Y-300394D01*
G01X-252480Y-300472D02*
Y-303406D01*
G54D19*
G01X-361417Y-357283D02*
X-367717D01*
G01X-291339Y-374409D02*
X-296850Y-368898D01*
M02*
