G04 ================== begin FILE IDENTIFICATION RECORD ==================*
G04 Layout Name:  C:/SafeLight/LightSensor/allegro/SAFELIGHT1_4_NS.brd*
G04 Film Name:    BOTTOM*
G04 File Format:  Gerber RS274X*
G04 File Origin:  Cadence Allegro 17.2-S078*
G04 Origin Date:  Tue Apr 25 14:28:07 2023*
G04 *
G04 Layer:  BOARD GEOMETRY/DESIGN_OUTLINE*
G04 Layer:  ETCH/BOTTOM*
G04 Layer:  PIN/BOTTOM*
G04 Layer:  VIA CLASS/BOTTOM*
G04 *
G04 Offset:    (0.0000 0.0000)*
G04 Mirror:    No*
G04 Mode:      Positive*
G04 Rotation:  0*
G04 FullContactRelief:  No*
G04 UndefLineWidth:     0.0100*
G04 ================== end FILE IDENTIFICATION RECORD ====================*
%FSLAX25Y25*MOIN*%
%IR0*IPPOS*OFA0.00000B0.00000*MIA0B0*SFA1.00000B1.00000*%
%ADD10C,.023622*%
%ADD13O,.055118X.082681*%
%ADD17C,.03937*%
%ADD15C,.04*%
%ADD11R,.07874X.07874*%
%ADD16R,.04X.04*%
%ADD14C,.055429*%
%ADD12C,.066*%
%ADD18C,.009843*%
%ADD19C,.005*%
%ADD20C,.000394*%
%ADD22C,.049386*%
%ADD23C,.065449*%
%ADD21C,.076016*%
G75*
%LPD*%
G75*
G36*
G01X-409449Y-290748D02*
X-207874D01*
Y-389370D01*
X-409449D01*
Y-290748D01*
G37*
%LPC*%
G75*
G36*
G01X-400304Y-350984D02*
Y-343110D01*
G02X-399803Y-342609I501J0D01*
G01X-391929D01*
G02X-391428Y-343110I0J-501D01*
G01Y-350984D01*
G02X-391929Y-351485I-501J0D01*
G01X-399803D01*
G02X-400304Y-350984I0J501D01*
G37*
G36*
G01Y-341142D02*
Y-333268D01*
G02X-399803Y-332767I501J0D01*
G01X-391929D01*
G02X-391428Y-333268I0J-501D01*
G01Y-341142D01*
G02X-391929Y-341643I-501J0D01*
G01X-399803D01*
G02X-400304Y-341142I0J501D01*
G37*
G36*
G01X-393414Y-385039D02*
Y-382283D01*
G02X-386901I3257J0D01*
G01Y-385039D01*
G02X-393414I-3257J0D01*
G37*
G36*
G01X-362312D02*
Y-382283D01*
G02X-355798I3257J0D01*
G01Y-385039D01*
G02X-362312I-3257J0D01*
G37*
G36*
G01X-315121Y-376644D02*
Y-373749D01*
G02X-316052Y-372244I751J1505D01*
G02X-312688I1682J0D01*
G02X-313619Y-373749I-1682J0D01*
G01Y-376644D01*
G02X-312688Y-378150I-751J-1505D01*
G02X-316052I-1682J0D01*
G02X-315121Y-376644I1682J0D01*
G37*
G36*
G01X-293003Y-374149D02*
X-296000Y-371152D01*
X-296094Y-371162D01*
G02X-296260Y-371170I-167J1674D01*
G02X-294578Y-369488I0J1682D01*
G02X-294586Y-369654I-1682J1D01*
G01X-294596Y-369748D01*
X-291599Y-372745D01*
X-291504Y-372736D01*
G02X-291339Y-372728I167J-1674D01*
G02X-293020Y-374409I0J-1682D01*
G02X-293012Y-374244I1682J-1D01*
G01X-293003Y-374149D01*
G37*
G36*
G01X-288015Y-372102D02*
X-292476Y-367641D01*
X-292586Y-367670D01*
G02X-293012Y-367725I-426J1628D01*
G02X-291330Y-366043I0J1682D01*
G02X-291385Y-366469I-1682J0D01*
G01X-291414Y-366580D01*
X-286954Y-371040D01*
X-286843Y-371011D01*
G02X-286417Y-370956I426J-1628D01*
G02X-288099Y-372638I0J-1682D01*
G02X-288044Y-372212I1682J0D01*
G01X-288015Y-372102D01*
G37*
G36*
G01X-366359Y-358276D02*
G02X-367717Y-358965I-1357J993D01*
G02Y-355602I0J1682D01*
G02X-366359Y-356291I0J-1682D01*
G01X-362775D01*
G02X-361417Y-355602I1357J-993D01*
G02Y-358965I0J-1682D01*
G02X-362775Y-358276I0J1682D01*
G01X-366359D01*
G37*
G36*
G01X-262122Y-347207D02*
X-273692D01*
G02X-275197Y-348139I-1505J751D01*
G02Y-344775I0J1682D01*
G02X-273692Y-345706I0J-1682D01*
G01X-261811D01*
G02X-261280Y-345926I0J-751D01*
G01X-258524Y-348682D01*
G02X-258304Y-349213I-531J-531D01*
G01Y-360700D01*
G02X-257373Y-362205I-751J-1505D01*
G02X-260737I-1682J0D01*
G02X-259806Y-360700I1682J0D01*
G01Y-349524D01*
X-262122Y-347207D01*
G37*
G36*
G01X-273101Y-343270D02*
G02X-274606Y-344202I-1505J751D01*
G02Y-340838I0J1682D01*
G02X-273101Y-341769I0J-1682D01*
G01X-263119D01*
G02X-261614Y-340838I1505J-751D01*
G02Y-344202I0J-1682D01*
G02X-263119Y-343270I0J1682D01*
G01X-273101D01*
G37*
G36*
G01X-297707Y-340121D02*
G02X-299213Y-341052I-1505J751D01*
G02Y-337688I0J1682D01*
G02X-297707Y-338619I0J-1682D01*
G01X-295600D01*
G02X-294094Y-337688I1505J-751D01*
G02Y-341052I0J-1682D01*
G02X-295600Y-340121I0J1682D01*
G01X-297707D01*
G37*
G36*
G01X-275267Y-336971D02*
G02X-276772Y-337902I-1505J751D01*
G02Y-334539I0J1682D01*
G02X-275267Y-335470I0J-1682D01*
G01X-255836D01*
G02X-254331Y-334539I1505J-751D01*
G02Y-337902I0J-1682D01*
G02X-255836Y-336971I0J1682D01*
G01X-275267D01*
G37*
G36*
G01X-302235Y-326538D02*
G02X-303740Y-327469I-1505J751D01*
G02Y-324106I0J1682D01*
G02X-302235Y-325037I0J-1682D01*
G01X-295009D01*
G02X-293504Y-324106I1505J-751D01*
G02Y-327469I0J-1682D01*
G02X-295009Y-326538I0J1682D01*
G01X-302235D01*
G37*
G36*
G01X-270739Y-320633D02*
G02X-272244Y-321564I-1505J751D01*
G02Y-318200I0J1682D01*
G02X-270739Y-319131I0J-1682D01*
G01X-260757D01*
G02X-259252Y-318200I1505J-751D01*
G02Y-321564I0J-1682D01*
G02X-260757Y-320633I0J1682D01*
G01X-270739D01*
G37*
G36*
G01X-249981Y-302189D02*
Y-301406D01*
G02X-249480Y-300905I501J0D01*
G01X-245480D01*
G02X-244980Y-301406I0J-501D01*
G01Y-305406D01*
G02X-245480Y-305906I-501J0D01*
G01X-246263D01*
Y-306218D01*
X-246168Y-306276D01*
G02X-244980Y-308406I-1313J-2129D01*
G02X-247480Y-310906I-2501J0D01*
G02X-249635Y-309674I0J2501D01*
G03X-250325I-345J-203D01*
G02X-254635I-2155J1268D01*
G03X-255325I-345J-203D01*
G02X-259635I-2155J1268D01*
G03X-260325I-345J-203D01*
G02X-264635I-2155J1268D01*
G03X-265325I-345J-203D01*
G02X-267480Y-310906I-2155J1268D01*
G02X-269981Y-308406I0J2501D01*
G02X-268749Y-306250I2501J0D01*
G03Y-305561I-203J345D01*
G02X-269981Y-303406I1268J2155D01*
G02X-267480Y-300905I2501J0D01*
G02X-265325Y-302137I0J-2501D01*
G03X-264635I345J203D01*
G02X-260325I2155J-1268D01*
G03X-259635I345J203D01*
G02X-255325I2155J-1268D01*
G03X-254635I345J203D01*
G02X-252480Y-300905I2155J-1268D01*
G02X-250351Y-302093I0J-2501D01*
G01X-250293Y-302189D01*
X-249981D01*
G37*
G54D22*
X-232756Y-323425D03*
X-222756D03*
G54D23*
X-322244Y-307874D03*
Y-323622D03*
G54D21*
X-373071Y-302559D03*
X-383071D03*
X-393071D03*
%LPD*%
G75*
G54D10*
X-400984Y-371063D03*
X-380512Y-368504D03*
X-380028Y-364961D03*
X-367717Y-357283D03*
X-361417D03*
X-367717Y-331693D03*
X-371260Y-327362D03*
X-370268Y-323031D03*
X-373327Y-319587D03*
X-350000Y-375386D03*
X-350197Y-333465D03*
X-354528Y-330118D03*
X-346260Y-322244D03*
X-329331Y-380118D03*
X-328425Y-372323D03*
X-331693Y-346457D03*
X-332087Y-354331D03*
X-338386D03*
X-314370Y-378150D03*
X-321850Y-377165D03*
X-314370Y-372244D03*
X-313189Y-331693D03*
X-296260Y-369488D03*
X-304232Y-364075D03*
X-308071Y-360630D03*
X-299213Y-339370D03*
X-294094D03*
X-308465Y-335630D03*
X-293504Y-325787D03*
X-303740D03*
X-278150Y-378543D03*
X-293012Y-366043D03*
X-286417Y-372638D03*
X-291339Y-374409D03*
X-290157Y-347728D03*
X-288976Y-337795D03*
X-292035Y-333071D03*
X-285638Y-314961D03*
X-272244Y-378543D03*
X-264567Y-384252D03*
X-275197Y-346457D03*
X-266929Y-354331D03*
X-270472D03*
X-263386Y-350787D03*
X-270472D03*
X-266929Y-357874D03*
X-270472D03*
X-263386D03*
Y-354331D03*
X-266929Y-350787D03*
X-261614Y-342520D03*
X-274606D03*
X-276772Y-336220D03*
X-263386Y-326283D03*
X-272244Y-319882D03*
X-259055Y-362205D03*
X-244094Y-369488D03*
Y-362598D03*
X-254528Y-371654D03*
X-254331Y-336220D03*
X-246260Y-331890D03*
X-256693Y-327929D03*
X-259252Y-319882D03*
X-239370Y-366535D03*
X-236417Y-363780D03*
X-233465Y-349803D03*
Y-343898D03*
X-236024Y-352756D03*
Y-340945D03*
X-223031Y-366732D03*
X-225984Y-363780D03*
X-219882D03*
X-210827Y-368110D03*
G54D20*
G01X-409646Y-290551D02*
Y-389567D01*
X-184646D01*
Y-290551D01*
X-409646D01*
G54D11*
X-395866Y-347047D03*
Y-337205D03*
G54D12*
X-393071Y-302559D03*
X-373071D03*
X-383071D03*
G54D13*
X-390157Y-383661D03*
X-359055D03*
G54D14*
X-322244Y-307874D03*
Y-323622D03*
G54D15*
X-267480Y-303406D03*
X-262480Y-308406D03*
Y-303406D03*
X-267480Y-308406D03*
X-257480D03*
Y-303406D03*
X-252480Y-308406D03*
Y-303406D03*
X-247480Y-308406D03*
G54D16*
Y-303406D03*
G54D17*
X-232756Y-323425D03*
X-222756D03*
G54D18*
G01X-361417Y-357283D02*
X-367717D01*
G01X-291339Y-374409D02*
X-296260Y-369488D01*
G54D19*
G01X-395866Y-351685D02*
Y-347047D01*
G01D02*
Y-342409D01*
G01X-400504Y-347047D02*
X-395866D01*
G01D02*
X-391228D01*
G01X-314370Y-372244D02*
Y-378150D01*
G01X-294094Y-339370D02*
X-299213D01*
G01X-303740Y-325787D02*
X-293504D01*
G01X-293012Y-366043D02*
X-286417Y-372638D01*
G01X-275197Y-346457D02*
X-261811D01*
X-259055Y-349213D01*
Y-362205D01*
G01X-261614Y-342520D02*
X-274606D01*
G01X-276772Y-336220D02*
X-254331D01*
G01X-259252Y-319882D02*
X-272244D01*
G01X-267480Y-303406D02*
Y-300705D01*
G01X-270181Y-303406D02*
X-267480D01*
G01X-257480D02*
Y-300394D01*
G01X-252559D02*
X-252480Y-300472D01*
G01D02*
Y-303406D01*
M02*
