G04 ================== begin FILE IDENTIFICATION RECORD ==================*
G04 Layout Name:  C:/SAFELIGHT/LIGHTSENSOR/allegro/SAFELIGHT1_5.brd*
G04 Film Name:    SM_BOTTOM*
G04 File Format:  Gerber RS274X*
G04 File Origin:  Cadence Allegro 17.2-S078*
G04 Origin Date:  Thu Apr 27 18:31:00 2023*
G04 *
G04 Layer:  VIA CLASS/SOLDERMASK_BOTTOM*
G04 Layer:  PIN/SOLDERMASK_BOTTOM*
G04 Layer:  BOARD GEOMETRY/DESIGN_OUTLINE*
G04 *
G04 Offset:    (0.0000 0.0000)*
G04 Mirror:    No*
G04 Mode:      Positive*
G04 Rotation:  0*
G04 FullContactRelief:  No*
G04 UndefLineWidth:     0.0100*
G04 ================== end FILE IDENTIFICATION RECORD ====================*
%FSLAX25Y25*MOIN*%
%IR0*IPPOS*OFA0.00000B0.00000*MIA0B0*SFA1.00000B1.00000*%
%ADD10C,.023622*%
%ADD13O,.055118X.082681*%
%ADD15C,.04*%
%ADD11R,.07874X.07874*%
%ADD16R,.04X.04*%
%ADD14C,.063311*%
%ADD12C,.07387*%
%ADD17C,.04724*%
%ADD18C,.000394*%
G75*
%LPD*%
G75*
G54D10*
X-400984Y-371063D03*
X-380512Y-368504D03*
X-380028Y-364961D03*
X-367717Y-357283D03*
X-361417D03*
X-371260Y-327362D03*
X-367717Y-331693D03*
X-373327Y-319587D03*
X-370268Y-323031D03*
X-350000Y-375386D03*
X-354528Y-330118D03*
X-350197Y-333465D03*
X-346260Y-322244D03*
X-329331Y-380118D03*
X-328425Y-372323D03*
X-331693Y-346457D03*
X-332087Y-354331D03*
X-338386D03*
X-314370Y-380118D03*
X-321850Y-377165D03*
X-314370Y-372244D03*
X-313189Y-331693D03*
X-296850Y-368898D03*
X-308071Y-360630D03*
X-304232Y-364075D03*
X-299213Y-339370D03*
X-294094D03*
X-308465Y-335630D03*
X-293504Y-325787D03*
X-303740D03*
X-278150Y-378543D03*
X-293012Y-366043D03*
X-286417Y-372638D03*
X-291339Y-374409D03*
X-290157Y-347728D03*
X-278346Y-336220D03*
X-292035Y-333071D03*
X-288976Y-337795D03*
X-285638Y-314961D03*
X-272244Y-378543D03*
X-264567Y-384252D03*
X-275197Y-346457D03*
X-266929Y-354331D03*
X-270472D03*
X-263386Y-350787D03*
X-270472D03*
X-266929Y-357874D03*
X-270472D03*
X-263386D03*
Y-354331D03*
X-266929Y-350787D03*
X-261614Y-342520D03*
X-275591D03*
X-273425Y-319882D03*
X-262992Y-325394D03*
X-259055Y-362205D03*
X-244094Y-362598D03*
Y-369488D03*
X-254528Y-371654D03*
X-254331Y-336220D03*
X-246260Y-331890D03*
X-258661Y-326575D03*
X-259252Y-319882D03*
X-236417Y-363780D03*
X-239370Y-366535D03*
X-236024Y-352756D03*
X-233465Y-349803D03*
Y-343898D03*
X-236024Y-340945D03*
X-219882Y-363780D03*
X-225984D03*
X-223031Y-366732D03*
X-210827Y-368110D03*
G54D11*
X-395866Y-347047D03*
Y-337205D03*
G54D12*
X-393071Y-302559D03*
X-373071D03*
X-383071D03*
G54D13*
X-390157Y-383661D03*
X-359055D03*
G54D14*
X-322244Y-307874D03*
Y-323622D03*
G54D15*
X-267480Y-303406D03*
X-262480Y-308406D03*
Y-303406D03*
X-267480Y-308406D03*
X-257480D03*
Y-303406D03*
X-252480Y-308406D03*
Y-303406D03*
X-247480Y-308406D03*
G54D16*
Y-303406D03*
G54D17*
X-232756Y-323425D03*
X-222756D03*
G54D18*
G01X-409449Y-290748D02*
Y-389370D01*
X-180512D01*
Y-290748D01*
X-409449D01*
M02*
