G04 ================== begin FILE IDENTIFICATION RECORD ==================*
G04 Layout Name:  C:/SAFELIGHT/LIGHTSENSOR/allegro/SAFELIGHT1_5.brd*
G04 Film Name:    SS_TOP*
G04 File Format:  Gerber RS274X*
G04 File Origin:  Cadence Allegro 17.2-S078*
G04 Origin Date:  Thu Apr 27 18:31:00 2023*
G04 *
G04 Layer:  USER PART NUMBER/SILKSCREEN_TOP*
G04 Layer:  TOLERANCE/SILKSCREEN_TOP*
G04 Layer:  REF DES/SILKSCREEN_TOP*
G04 Layer:  PACKAGE GEOMETRY/SILKSCREEN_TOP*
G04 Layer:  DEVICE TYPE/SILKSCREEN_TOP*
G04 Layer:  COMPONENT VALUE/SILKSCREEN_TOP*
G04 Layer:  BOARD GEOMETRY/SILKSCREEN_TOP*
G04 Layer:  BOARD GEOMETRY/DESIGN_OUTLINE*
G04 *
G04 Offset:    (0.0000 0.0000)*
G04 Mirror:    No*
G04 Mode:      Positive*
G04 Rotation:  0*
G04 FullContactRelief:  No*
G04 UndefLineWidth:     0.0100*
G04 ================== end FILE IDENTIFICATION RECORD ====================*
%FSLAX25Y25*MOIN*%
%IR0*IPPOS*OFA0.00000B0.00000*MIA0B0*SFA1.00000B1.00000*%
%ADD10C,.003937*%
%ADD11C,.007874*%
%ADD12C,.005*%
%ADD13C,.000394*%
G75*
%LPD*%
G75*
G36*
G01X-370866Y-345276D02*
G03I-1181J0D01*
G37*
G54D10*
G01X-254724Y-381102D02*
Y-384252D01*
X-268110D01*
Y-367717D01*
X-254724D01*
Y-381102D01*
G01X-276558Y-361614D02*
X-276577Y-364055D01*
G01Y-364053D02*
X-274136Y-364075D01*
G01X-274133Y-344687D02*
X-276574Y-344683D01*
G01X-276572D02*
X-276579Y-347124D01*
G01X-257285Y-363976D02*
X-257282Y-361535D01*
G01X-259724Y-363976D02*
X-257283D01*
G01Y-344687D02*
X-259724Y-344683D01*
G01X-257284Y-347126D02*
X-257283Y-344685D01*
G01X-250512Y-342028D02*
Y-351693D01*
G01D02*
X-243976D01*
G01Y-342028D02*
X-250512D01*
G01X-243976Y-351693D02*
Y-342028D01*
G54D11*
G01X-394291Y-389173D02*
Y-378543D01*
G01X-407874Y-336811D02*
Y-326772D01*
X-383858D01*
Y-357480D01*
X-407874D01*
Y-336614D01*
G01D02*
Y-336811D01*
G01X-389961Y-375000D02*
Y-371850D01*
X-388795D01*
G01X-369094Y-368701D02*
G03I-394J0D01*
G01X-359252Y-375000D02*
Y-371850D01*
X-360417D01*
G01X-354921Y-378543D02*
X-354906D01*
Y-388780D01*
X-354921D01*
G01X-328346Y-374213D02*
G03I-394J0D01*
G01X-328740Y-356102D02*
Y-356890D01*
X-341732D01*
Y-356102D01*
G01X-328740Y-344685D02*
Y-343898D01*
X-341732D01*
Y-344685D01*
G01X-339173Y-346457D02*
G03I-394J0D01*
G01X-317323Y-381890D02*
X-326378D01*
G01X-317323Y-372441D02*
X-326378D01*
G01X-292717Y-386417D02*
G03I-394J0D01*
G01X-270472Y-315945D02*
Y-295276D01*
X-244488D01*
Y-316535D01*
X-270472D01*
Y-315945D01*
G01X-252953Y-385827D02*
G03I-394J0D01*
G01X-255315Y-362756D02*
G03I-394J0D01*
G54D12*
G01X-406071Y-294559D02*
X-384071D01*
X-383071Y-295559D01*
X-382071Y-294559D01*
X-360071D01*
Y-296559D01*
X-362071D01*
Y-308559D01*
X-360071D01*
Y-310559D01*
X-382071D01*
X-383071Y-309559D01*
X-384071Y-310559D01*
X-406071D01*
Y-308559D01*
X-404071D01*
Y-296559D01*
X-406071D01*
Y-294559D01*
G01X-385071Y-298559D02*
Y-306559D01*
G01X-386071D02*
Y-298559D01*
G01X-387071D02*
Y-306559D01*
G01X-388071D02*
Y-298559D01*
G01X-389071D02*
Y-306559D01*
G01X-390071D02*
Y-298559D01*
G01X-391071D02*
Y-306559D01*
G01X-392071Y-298559D02*
X-374071D01*
Y-306559D01*
X-392071D01*
Y-298559D01*
G01X-347047Y-309843D02*
X-344291D01*
Y-312992D01*
G01X-352953Y-309843D02*
X-355709D01*
Y-312992D01*
G01X-340354Y-315748D02*
G03X-312598Y-300394I18168J-77D01*
G01X-340354Y-315748D02*
G02X-331890Y-300394I17984J96D01*
G01Y-291732D01*
X-312598D01*
Y-300394D01*
G02X-340354Y-315748I-9588J-15432D01*
G01X-329744Y-305748D02*
Y-310748D01*
G01Y-325748D02*
Y-320748D01*
G01X-327244Y-308248D02*
X-332244D01*
G01X-286732Y-387992D02*
X-286102D01*
G01X-286732Y-384843D02*
X-286102D01*
G01X-235354Y-326654D02*
G03X-232290Y-330315I7588J3238D01*
G01X-223222D02*
X-232290D01*
G01Y-316535D02*
G03X-235354Y-320197I4535J-6909D01*
G01X-232290Y-316535D02*
X-223222D01*
G01Y-330315D02*
G03X-220157Y-326654I-4535J6909D01*
G01Y-320197D02*
G03X-223222Y-316535I-7588J-3238D01*
G54D13*
G01X-409449Y-290748D02*
Y-389370D01*
X-180512D01*
Y-290748D01*
X-409449D01*
G01X-406299Y-376251D02*
X-403799D01*
Y-376918D01*
X-403924Y-377131D01*
X-404091Y-377264D01*
X-404424Y-377318D01*
X-404757Y-377264D01*
X-404966Y-377104D01*
X-405091Y-376918D01*
Y-376251D01*
G01Y-376918D02*
X-406299Y-377318D01*
G01X-405924Y-378398D02*
X-406133Y-378557D01*
X-406257Y-378744D01*
X-406299Y-378984D01*
X-406216Y-379224D01*
X-406049Y-379411D01*
X-405757Y-379544D01*
X-405424Y-379571D01*
X-405091Y-379518D01*
X-404883Y-379384D01*
X-404716Y-379198D01*
X-404674Y-379011D01*
X-404716Y-378824D01*
X-404883Y-378584D01*
X-403799Y-378664D01*
Y-379384D01*
G01X-391063Y-364972D02*
X-394646D01*
X-395396Y-365226D01*
X-395896Y-365732D01*
X-396063Y-366366D01*
X-395896Y-366999D01*
X-395396Y-367506D01*
X-394646Y-367759D01*
X-391063D01*
G01X-395396Y-370136D02*
X-395813Y-370643D01*
X-396063Y-371213D01*
Y-371719D01*
X-395813Y-372226D01*
X-395396Y-372606D01*
X-394813Y-372796D01*
X-394230Y-372669D01*
X-393730Y-372352D01*
X-393396Y-371782D01*
X-393230Y-371022D01*
X-392896Y-370579D01*
X-392313Y-370389D01*
X-391730Y-370516D01*
X-391313Y-370832D01*
X-391063Y-371276D01*
Y-371719D01*
X-391230Y-372163D01*
X-391646Y-372543D01*
G01X-393396Y-377072D02*
X-393146Y-377326D01*
X-392730Y-377516D01*
X-392146Y-377643D01*
X-391646Y-377516D01*
X-391313Y-377263D01*
X-391063Y-376819D01*
Y-375109D01*
X-396063D01*
Y-377199D01*
X-395730Y-377643D01*
X-395230Y-377896D01*
X-394646Y-378022D01*
X-394063Y-377896D01*
X-393563Y-377516D01*
X-393396Y-377072D01*
Y-375109D01*
G01X-396063Y-381666D02*
X-391063D01*
X-392063Y-380906D01*
G01X-396063D02*
Y-382426D01*
G01X-398417Y-323102D02*
X-398576Y-322977D01*
X-398763Y-322894D01*
X-398976D01*
X-399217Y-323019D01*
X-399403Y-323227D01*
X-399537Y-323477D01*
X-399643Y-323894D01*
X-399670Y-324269D01*
X-399617Y-324644D01*
X-399537Y-324894D01*
X-399376Y-325144D01*
X-399190Y-325310D01*
X-399003Y-325394D01*
X-398817D01*
X-398630Y-325310D01*
X-398470Y-325185D01*
X-398337Y-325019D01*
G01X-396803Y-325394D02*
X-397017Y-325352D01*
X-397203Y-325185D01*
X-397363Y-324935D01*
X-397470Y-324644D01*
X-397523Y-324310D01*
Y-323977D01*
X-397470Y-323644D01*
X-397363Y-323352D01*
X-397203Y-323102D01*
X-397017Y-322935D01*
X-396803Y-322894D01*
X-396590Y-322935D01*
X-396403Y-323102D01*
X-396243Y-323352D01*
X-396137Y-323644D01*
X-396083Y-323977D01*
Y-324310D01*
X-396137Y-324644D01*
X-396243Y-324935D01*
X-396403Y-325185D01*
X-396590Y-325352D01*
X-396803Y-325394D01*
G01X-395217D02*
Y-322894D01*
X-393990Y-325394D01*
Y-322894D01*
G01X-392403Y-325394D02*
Y-322894D01*
X-392723Y-323394D01*
G01Y-325394D02*
X-392083D01*
G01X-392540Y-317050D02*
X-392033Y-317467D01*
X-391463Y-317717D01*
X-390957D01*
X-390450Y-317467D01*
X-390070Y-317050D01*
X-389880Y-316467D01*
X-390007Y-315883D01*
X-390324Y-315383D01*
X-390894Y-315050D01*
X-391654Y-314883D01*
X-392097Y-314550D01*
X-392287Y-313967D01*
X-392160Y-313383D01*
X-391844Y-312967D01*
X-391400Y-312717D01*
X-390957D01*
X-390513Y-312883D01*
X-390133Y-313300D01*
G01X-388010Y-312717D02*
X-387124Y-317717D01*
X-386110Y-312717D01*
X-385097Y-317717D01*
X-384210Y-312717D01*
G01X-381010Y-317717D02*
Y-312717D01*
X-381770Y-313717D01*
G01Y-317717D02*
X-380250D01*
G01X-395657Y-293701D02*
X-395870Y-293659D01*
X-396057Y-293493D01*
X-396217Y-293243D01*
X-396323Y-292951D01*
X-396377Y-292617D01*
Y-292284D01*
X-396323Y-291951D01*
X-396217Y-291659D01*
X-396057Y-291409D01*
X-395870Y-291243D01*
X-395657Y-291201D01*
X-395443Y-291243D01*
X-395257Y-291409D01*
X-395097Y-291659D01*
X-394990Y-291951D01*
X-394937Y-292284D01*
Y-292617D01*
X-394990Y-292951D01*
X-395097Y-293243D01*
X-395257Y-293493D01*
X-395443Y-293659D01*
X-395657Y-293701D01*
G01X-393963D02*
Y-291201D01*
X-392950D01*
G01X-393323Y-292409D02*
X-393963D01*
G01X-391763Y-293701D02*
Y-291201D01*
X-390750D01*
G01X-391123Y-292409D02*
X-391763D01*
G01X-382978Y-346956D02*
X-381332D01*
G01X-382655Y-338885D02*
X-381135D01*
G01X-381958Y-337801D02*
Y-339968D01*
G01X-376960Y-326252D02*
X-377120Y-326127D01*
X-377306Y-326043D01*
X-377520D01*
X-377760Y-326169D01*
X-377946Y-326377D01*
X-378080Y-326627D01*
X-378187Y-327043D01*
X-378213Y-327419D01*
X-378160Y-327793D01*
X-378080Y-328043D01*
X-377920Y-328293D01*
X-377733Y-328460D01*
X-377546Y-328543D01*
X-377360D01*
X-377173Y-328460D01*
X-377013Y-328335D01*
X-376880Y-328169D01*
G01X-375346Y-328543D02*
Y-326043D01*
X-375667Y-326543D01*
G01Y-328543D02*
X-375026D01*
G01X-373146D02*
X-372960Y-328502D01*
X-372746Y-328377D01*
X-372613Y-328169D01*
X-372560Y-327877D01*
X-372613Y-327585D01*
X-372773Y-327335D01*
X-373013Y-327210D01*
X-373280D01*
X-373440Y-327127D01*
X-373573Y-326919D01*
X-373626Y-326627D01*
X-373546Y-326335D01*
X-373360Y-326127D01*
X-373146Y-326043D01*
X-372933Y-326127D01*
X-372746Y-326335D01*
X-372667Y-326627D01*
X-372720Y-326919D01*
X-372853Y-327127D01*
X-373013Y-327210D01*
X-373280D01*
X-373520Y-327335D01*
X-373680Y-327585D01*
X-373733Y-327877D01*
X-373680Y-328169D01*
X-373546Y-328377D01*
X-373333Y-328502D01*
X-373146Y-328543D01*
G01X-377550Y-318181D02*
X-377710Y-318056D01*
X-377897Y-317972D01*
X-378110D01*
X-378350Y-318098D01*
X-378537Y-318306D01*
X-378670Y-318556D01*
X-378777Y-318972D01*
X-378804Y-319348D01*
X-378750Y-319722D01*
X-378670Y-319972D01*
X-378510Y-320222D01*
X-378324Y-320389D01*
X-378137Y-320472D01*
X-377950D01*
X-377764Y-320389D01*
X-377604Y-320264D01*
X-377470Y-320098D01*
G01X-375937Y-320472D02*
Y-317972D01*
X-376257Y-318472D01*
G01Y-320472D02*
X-375617D01*
G01X-374191Y-320181D02*
X-374004Y-320389D01*
X-373790Y-320472D01*
X-373577Y-320389D01*
X-373390Y-320139D01*
X-373257Y-319764D01*
X-373204Y-319389D01*
Y-318931D01*
X-373257Y-318556D01*
X-373390Y-318222D01*
X-373550Y-318056D01*
X-373737Y-317972D01*
X-373950Y-318056D01*
X-374110Y-318222D01*
X-374217Y-318472D01*
X-374270Y-318806D01*
X-374217Y-319097D01*
X-374084Y-319389D01*
X-373924Y-319556D01*
X-373737Y-319598D01*
X-373524Y-319514D01*
X-373364Y-319306D01*
X-373204Y-318931D01*
G01X-374991Y-359913D02*
X-375151Y-359788D01*
X-375338Y-359705D01*
X-375551D01*
X-375791Y-359830D01*
X-375978Y-360038D01*
X-376111Y-360288D01*
X-376218Y-360705D01*
X-376244Y-361080D01*
X-376191Y-361455D01*
X-376111Y-361705D01*
X-375951Y-361955D01*
X-375765Y-362121D01*
X-375578Y-362205D01*
X-375391D01*
X-375205Y-362121D01*
X-375044Y-361996D01*
X-374911Y-361830D01*
G01X-373885Y-360121D02*
X-373725Y-359871D01*
X-373538Y-359746D01*
X-373325Y-359705D01*
X-373058Y-359788D01*
X-372871Y-359996D01*
X-372818Y-360246D01*
X-372844Y-360496D01*
X-372951Y-360705D01*
X-373485Y-361121D01*
X-373725Y-361413D01*
X-373885Y-361830D01*
X-373938Y-362205D01*
X-372818D01*
G01X-371178Y-359705D02*
X-371391Y-359788D01*
X-371551Y-359996D01*
X-371658Y-360246D01*
X-371738Y-360580D01*
X-371765Y-360955D01*
X-371738Y-361330D01*
X-371658Y-361663D01*
X-371551Y-361913D01*
X-371391Y-362121D01*
X-371178Y-362205D01*
X-370965Y-362121D01*
X-370805Y-361913D01*
X-370698Y-361663D01*
X-370618Y-361330D01*
X-370591Y-360955D01*
X-370618Y-360580D01*
X-370698Y-360246D01*
X-370805Y-359996D01*
X-370965Y-359788D01*
X-371178Y-359705D01*
G01X-373425Y-354724D02*
X-367126D01*
Y-343307D01*
X-373425D01*
Y-354724D01*
G01X-374385Y-339481D02*
X-374615Y-339326D01*
X-374883Y-339223D01*
X-375190D01*
X-375535Y-339378D01*
X-375803Y-339636D01*
X-375994Y-339946D01*
X-376148Y-340463D01*
X-376186Y-340928D01*
X-376109Y-341393D01*
X-375994Y-341703D01*
X-375765Y-342013D01*
X-375496Y-342220D01*
X-375228Y-342323D01*
X-374959D01*
X-374691Y-342220D01*
X-374461Y-342065D01*
X-374270Y-341858D01*
G01X-372933Y-342323D02*
Y-339223D01*
G01X-371323D02*
Y-342323D01*
G01Y-340773D02*
X-372933D01*
G01X-368185Y-339481D02*
X-368415Y-339326D01*
X-368683Y-339223D01*
X-368990D01*
X-369335Y-339378D01*
X-369603Y-339636D01*
X-369794Y-339946D01*
X-369948Y-340463D01*
X-369986Y-340928D01*
X-369909Y-341393D01*
X-369794Y-341703D01*
X-369565Y-342013D01*
X-369296Y-342220D01*
X-369028Y-342323D01*
X-368759D01*
X-368491Y-342220D01*
X-368261Y-342065D01*
X-368070Y-341858D01*
G01X-365928Y-342323D02*
Y-339223D01*
X-366388Y-339843D01*
G01Y-342323D02*
X-365468D01*
G01X-374003Y-293701D02*
X-374217Y-293659D01*
X-374403Y-293493D01*
X-374563Y-293243D01*
X-374670Y-292951D01*
X-374723Y-292617D01*
Y-292284D01*
X-374670Y-291951D01*
X-374563Y-291659D01*
X-374403Y-291409D01*
X-374217Y-291243D01*
X-374003Y-291201D01*
X-373790Y-291243D01*
X-373603Y-291409D01*
X-373443Y-291659D01*
X-373337Y-291951D01*
X-373283Y-292284D01*
Y-292617D01*
X-373337Y-292951D01*
X-373443Y-293243D01*
X-373603Y-293493D01*
X-373790Y-293659D01*
X-374003Y-293701D01*
G01X-372417D02*
Y-291201D01*
X-371190Y-293701D01*
Y-291201D01*
G01X-344488Y-383592D02*
X-346988D01*
Y-382925D01*
X-346863Y-382711D01*
X-346696Y-382578D01*
X-346363Y-382525D01*
X-346030Y-382578D01*
X-345822Y-382738D01*
X-345696Y-382925D01*
Y-383592D01*
G01Y-382925D02*
X-344488Y-382525D01*
G01Y-380858D02*
X-346988D01*
X-346488Y-381178D01*
G01X-344488D02*
Y-380538D01*
G01X-346988Y-378658D02*
X-346905Y-378872D01*
X-346696Y-379031D01*
X-346446Y-379138D01*
X-346113Y-379218D01*
X-345738Y-379245D01*
X-345363Y-379218D01*
X-345030Y-379138D01*
X-344780Y-379031D01*
X-344572Y-378872D01*
X-344488Y-378658D01*
X-344572Y-378445D01*
X-344780Y-378285D01*
X-345030Y-378178D01*
X-345363Y-378098D01*
X-345738Y-378072D01*
X-346113Y-378098D01*
X-346446Y-378178D01*
X-346696Y-378285D01*
X-346905Y-378445D01*
X-346988Y-378658D01*
G01X-351111Y-338968D02*
X-351235Y-339128D01*
X-351319Y-339314D01*
Y-339528D01*
X-351194Y-339768D01*
X-350985Y-339954D01*
X-350735Y-340088D01*
X-350319Y-340194D01*
X-349944Y-340221D01*
X-349569Y-340168D01*
X-349319Y-340088D01*
X-349069Y-339928D01*
X-348902Y-339741D01*
X-348819Y-339554D01*
Y-339368D01*
X-348902Y-339181D01*
X-349027Y-339021D01*
X-349194Y-338888D01*
G01X-348819Y-337354D02*
X-351319D01*
X-350819Y-337674D01*
G01X-348819D02*
Y-337034D01*
G01Y-335207D02*
X-349361Y-335154D01*
X-349819Y-335074D01*
X-350235Y-334968D01*
X-350694Y-334834D01*
X-351319Y-334621D01*
Y-335688D01*
G01X-356693Y-319488D02*
G03I-394J0D01*
G01X-346387Y-293701D02*
Y-291201D01*
X-345720D01*
X-345507Y-291326D01*
X-345374Y-291493D01*
X-345320Y-291826D01*
X-345374Y-292159D01*
X-345533Y-292367D01*
X-345720Y-292493D01*
X-346387D01*
G01X-345720D02*
X-345320Y-293701D01*
G01X-343654D02*
Y-291201D01*
X-343974Y-291701D01*
G01Y-293701D02*
X-343333D01*
G01X-356286Y-300648D02*
X-356033Y-300398D01*
X-355843Y-299982D01*
X-355716Y-299398D01*
X-355843Y-298898D01*
X-356096Y-298565D01*
X-356539Y-298315D01*
X-358249D01*
Y-303315D01*
X-356159D01*
X-355716Y-302982D01*
X-355463Y-302481D01*
X-355336Y-301898D01*
X-355463Y-301315D01*
X-355843Y-300815D01*
X-356286Y-300648D01*
X-358249D01*
G01X-352959Y-302315D02*
X-352643Y-302815D01*
X-352263Y-303148D01*
X-351819Y-303315D01*
X-351313Y-303148D01*
X-350933Y-302815D01*
X-350552Y-302315D01*
X-350426Y-301648D01*
Y-298315D01*
G01X-346593D02*
Y-303315D01*
G01X-348049Y-298315D02*
X-345136D01*
G01X-341493Y-303315D02*
Y-298315D01*
X-342252Y-299315D01*
G01Y-303315D02*
X-340733D01*
G01X-341072Y-329331D02*
Y-326831D01*
X-340405D01*
X-340192Y-326956D01*
X-340059Y-327122D01*
X-340005Y-327456D01*
X-340059Y-327789D01*
X-340219Y-327997D01*
X-340405Y-328122D01*
X-341072D01*
G01X-340405D02*
X-340005Y-329331D01*
G01X-338845Y-327247D02*
X-338685Y-326997D01*
X-338498Y-326872D01*
X-338285Y-326831D01*
X-338019Y-326914D01*
X-337832Y-327122D01*
X-337779Y-327372D01*
X-337805Y-327622D01*
X-337912Y-327831D01*
X-338445Y-328247D01*
X-338685Y-328539D01*
X-338845Y-328956D01*
X-338898Y-329331D01*
X-337779D01*
G01X-338252Y-340020D02*
X-337586Y-342520D01*
X-336919Y-340020D01*
G01X-335919Y-342520D02*
Y-340020D01*
X-335252D01*
X-335039Y-340145D01*
X-334906Y-340311D01*
X-334852Y-340645D01*
X-334906Y-340978D01*
X-335066Y-341186D01*
X-335252Y-341311D01*
X-335919D01*
G01X-335252D02*
X-334852Y-342520D01*
G01X-333186D02*
Y-340020D01*
X-333506Y-340520D01*
G01Y-342520D02*
X-332866D01*
G01X-310433Y-364243D02*
X-307933D01*
Y-364910D01*
X-308058Y-365123D01*
X-308225Y-365256D01*
X-308558Y-365310D01*
X-308891Y-365256D01*
X-309100Y-365096D01*
X-309225Y-364910D01*
Y-364243D01*
G01Y-364910D02*
X-310433Y-365310D01*
G01X-309391Y-366470D02*
X-309100Y-366656D01*
X-308933Y-366817D01*
X-308850Y-367030D01*
X-308933Y-367217D01*
X-309100Y-367350D01*
X-309350Y-367456D01*
X-309641Y-367483D01*
X-309891Y-367456D01*
X-310141Y-367350D01*
X-310350Y-367190D01*
X-310433Y-367003D01*
X-310350Y-366790D01*
X-310100Y-366603D01*
X-309725Y-366496D01*
X-309308Y-366470D01*
X-308767Y-366523D01*
X-308475Y-366603D01*
X-308183Y-366736D01*
X-307975Y-366923D01*
X-307933Y-367110D01*
X-308017Y-367296D01*
X-308225Y-367430D01*
G01X-324510Y-371457D02*
Y-368957D01*
X-323496D01*
G01X-323870Y-370165D02*
X-324510D01*
G01X-321643Y-370207D02*
X-321110D01*
Y-370957D01*
X-321270Y-371207D01*
X-321456Y-371373D01*
X-321723Y-371457D01*
X-321990Y-371373D01*
X-322176Y-371207D01*
X-322337Y-370957D01*
X-322443Y-370665D01*
X-322496Y-370332D01*
Y-370040D01*
X-322443Y-369790D01*
X-322337Y-369498D01*
X-322176Y-369248D01*
X-322017Y-369082D01*
X-321803Y-368957D01*
X-321617D01*
X-321403Y-369040D01*
X-321243Y-369207D01*
G01X-319603Y-371457D02*
Y-368957D01*
X-319923Y-369457D01*
G01Y-371457D02*
X-319283D01*
G01X-313456Y-352765D02*
X-313331Y-352605D01*
X-313248Y-352418D01*
Y-352205D01*
X-313373Y-351965D01*
X-313581Y-351778D01*
X-313831Y-351644D01*
X-314248Y-351538D01*
X-314623Y-351511D01*
X-314998Y-351565D01*
X-315248Y-351644D01*
X-315498Y-351805D01*
X-315665Y-351991D01*
X-315748Y-352178D01*
Y-352365D01*
X-315665Y-352551D01*
X-315540Y-352711D01*
X-315373Y-352844D01*
G01X-315748Y-354378D02*
X-313248D01*
X-313748Y-354058D01*
G01X-315748D02*
Y-354698D01*
G01X-315373Y-355991D02*
X-315581Y-356151D01*
X-315706Y-356338D01*
X-315748Y-356578D01*
X-315665Y-356818D01*
X-315498Y-357005D01*
X-315206Y-357138D01*
X-314873Y-357165D01*
X-314540Y-357111D01*
X-314331Y-356978D01*
X-314165Y-356791D01*
X-314123Y-356605D01*
X-314165Y-356418D01*
X-314331Y-356178D01*
X-313248Y-356258D01*
Y-356978D01*
G01X-318630Y-340543D02*
X-318755Y-340702D01*
X-318839Y-340889D01*
Y-341102D01*
X-318713Y-341343D01*
X-318505Y-341529D01*
X-318255Y-341663D01*
X-317839Y-341769D01*
X-317463Y-341796D01*
X-317089Y-341743D01*
X-316839Y-341663D01*
X-316589Y-341502D01*
X-316422Y-341316D01*
X-316339Y-341129D01*
Y-340943D01*
X-316422Y-340756D01*
X-316547Y-340596D01*
X-316713Y-340463D01*
G01X-316339Y-338929D02*
X-318839D01*
X-318339Y-339249D01*
G01X-316339D02*
Y-338609D01*
G01X-317380Y-337236D02*
X-317672Y-337049D01*
X-317839Y-336889D01*
X-317922Y-336676D01*
X-317839Y-336489D01*
X-317672Y-336356D01*
X-317422Y-336249D01*
X-317130Y-336222D01*
X-316880Y-336249D01*
X-316630Y-336356D01*
X-316422Y-336516D01*
X-316339Y-336702D01*
X-316422Y-336916D01*
X-316672Y-337102D01*
X-317047Y-337209D01*
X-317463Y-337236D01*
X-318005Y-337183D01*
X-318297Y-337102D01*
X-318589Y-336969D01*
X-318797Y-336782D01*
X-318839Y-336596D01*
X-318755Y-336409D01*
X-318547Y-336276D01*
G01X-307078Y-386685D02*
X-307238Y-386560D01*
X-307424Y-386476D01*
X-307638D01*
X-307878Y-386602D01*
X-308065Y-386810D01*
X-308198Y-387060D01*
X-308305Y-387476D01*
X-308331Y-387852D01*
X-308278Y-388226D01*
X-308198Y-388476D01*
X-308038Y-388726D01*
X-307851Y-388893D01*
X-307665Y-388976D01*
X-307478D01*
X-307291Y-388893D01*
X-307131Y-388768D01*
X-306998Y-388602D01*
G01X-306024Y-388976D02*
Y-386476D01*
G01X-304905D02*
Y-388976D01*
G01Y-387726D02*
X-306024D01*
G01X-303931Y-388976D02*
X-303265Y-386476D01*
X-302598Y-388976D01*
G01X-302838Y-388102D02*
X-303691D01*
G01X-301598Y-388976D02*
Y-386476D01*
X-300931D01*
X-300718Y-386602D01*
X-300585Y-386768D01*
X-300531Y-387102D01*
X-300585Y-387435D01*
X-300744Y-387643D01*
X-300931Y-387768D01*
X-301598D01*
G01X-300931D02*
X-300531Y-388976D01*
G01X-298705Y-387726D02*
X-298171D01*
Y-388476D01*
X-298331Y-388726D01*
X-298518Y-388893D01*
X-298785Y-388976D01*
X-299051Y-388893D01*
X-299238Y-388726D01*
X-299398Y-388476D01*
X-299505Y-388185D01*
X-299558Y-387852D01*
Y-387560D01*
X-299505Y-387310D01*
X-299398Y-387018D01*
X-299238Y-386768D01*
X-299078Y-386602D01*
X-298865Y-386476D01*
X-298678D01*
X-298465Y-386560D01*
X-298305Y-386726D01*
G01X-296131Y-388976D02*
X-297198D01*
Y-386476D01*
X-296131D01*
G01X-296558Y-387685D02*
X-297198D01*
G01X-292798Y-386476D02*
Y-388976D01*
X-291731D01*
G01X-289531D02*
X-290598D01*
Y-386476D01*
X-289531D01*
G01X-289958Y-387685D02*
X-290598D01*
G01X-288451Y-388976D02*
Y-386476D01*
X-287918D01*
X-287705Y-386602D01*
X-287544Y-386768D01*
X-287411Y-387018D01*
X-287305Y-387310D01*
X-287278Y-387726D01*
X-287305Y-388143D01*
X-287411Y-388435D01*
X-287544Y-388685D01*
X-287705Y-388852D01*
X-287918Y-388976D01*
X-288451D01*
G01X-308592Y-385236D02*
Y-382736D01*
X-307925D01*
X-307711Y-382861D01*
X-307578Y-383028D01*
X-307525Y-383361D01*
X-307578Y-383694D01*
X-307738Y-383903D01*
X-307925Y-384028D01*
X-308592D01*
G01X-307925D02*
X-307525Y-385236D01*
G01X-305911D02*
X-305858Y-384694D01*
X-305778Y-384236D01*
X-305672Y-383820D01*
X-305538Y-383361D01*
X-305325Y-382736D01*
X-306392D01*
G01X-301190Y-365678D02*
X-301030Y-365802D01*
X-300843Y-365886D01*
X-300630D01*
X-300390Y-365761D01*
X-300203Y-365552D01*
X-300070Y-365302D01*
X-299963Y-364886D01*
X-299937Y-364511D01*
X-299990Y-364136D01*
X-300070Y-363886D01*
X-300230Y-363636D01*
X-300417Y-363469D01*
X-300603Y-363386D01*
X-300790D01*
X-300976Y-363469D01*
X-301137Y-363594D01*
X-301270Y-363761D01*
G01X-302803Y-363386D02*
X-302990Y-363428D01*
X-303203Y-363552D01*
X-303337Y-363761D01*
X-303390Y-364052D01*
X-303337Y-364344D01*
X-303176Y-364594D01*
X-302937Y-364719D01*
X-302670D01*
X-302510Y-364802D01*
X-302376Y-365011D01*
X-302323Y-365302D01*
X-302403Y-365594D01*
X-302590Y-365802D01*
X-302803Y-365886D01*
X-303017Y-365802D01*
X-303203Y-365594D01*
X-303283Y-365302D01*
X-303230Y-365011D01*
X-303096Y-364802D01*
X-302937Y-364719D01*
X-302670D01*
X-302430Y-364594D01*
X-302270Y-364344D01*
X-302217Y-364052D01*
X-302270Y-363761D01*
X-302403Y-363552D01*
X-302617Y-363428D01*
X-302803Y-363386D01*
G01X-308592Y-371457D02*
Y-368957D01*
X-307925D01*
X-307711Y-369082D01*
X-307578Y-369248D01*
X-307525Y-369582D01*
X-307578Y-369915D01*
X-307738Y-370123D01*
X-307925Y-370248D01*
X-308592D01*
G01X-307925D02*
X-307525Y-371457D01*
G01X-305858D02*
X-305672Y-371415D01*
X-305458Y-371290D01*
X-305325Y-371082D01*
X-305272Y-370790D01*
X-305325Y-370498D01*
X-305485Y-370248D01*
X-305725Y-370123D01*
X-305992D01*
X-306152Y-370040D01*
X-306285Y-369832D01*
X-306338Y-369540D01*
X-306258Y-369248D01*
X-306072Y-369040D01*
X-305858Y-368957D01*
X-305645Y-369040D01*
X-305458Y-369248D01*
X-305378Y-369540D01*
X-305431Y-369832D01*
X-305565Y-370040D01*
X-305725Y-370123D01*
X-305992D01*
X-306231Y-370248D01*
X-306392Y-370498D01*
X-306445Y-370790D01*
X-306392Y-371082D01*
X-306258Y-371290D01*
X-306045Y-371415D01*
X-305858Y-371457D01*
G01X-304193Y-350857D02*
X-306693D01*
Y-351924D01*
G01X-304609Y-353084D02*
X-304359Y-353244D01*
X-304235Y-353431D01*
X-304193Y-353644D01*
X-304276Y-353911D01*
X-304485Y-354097D01*
X-304735Y-354150D01*
X-304985Y-354124D01*
X-305193Y-354017D01*
X-305609Y-353484D01*
X-305901Y-353244D01*
X-306318Y-353084D01*
X-306693Y-353031D01*
Y-354150D01*
G01X-308223Y-295562D02*
X-307970Y-295312D01*
X-307780Y-294895D01*
X-307653Y-294311D01*
X-307780Y-293812D01*
X-308033Y-293478D01*
X-308477Y-293228D01*
X-310187D01*
Y-298228D01*
X-308096D01*
X-307653Y-297895D01*
X-307400Y-297395D01*
X-307273Y-296812D01*
X-307400Y-296228D01*
X-307780Y-295728D01*
X-308223Y-295562D01*
X-310187D01*
G01X-305023Y-293228D02*
Y-296812D01*
X-304770Y-297562D01*
X-304263Y-298062D01*
X-303630Y-298228D01*
X-302996Y-298062D01*
X-302490Y-297562D01*
X-302237Y-296812D01*
Y-293228D01*
G01X-299733D02*
X-297326D01*
X-299733Y-298228D01*
X-297326D01*
G01X-293430D02*
Y-293228D01*
X-294190Y-294228D01*
G01Y-298228D02*
X-292670D01*
G01X-288119Y-377953D02*
Y-375453D01*
X-287452D01*
X-287239Y-375578D01*
X-287106Y-375744D01*
X-287052Y-376078D01*
X-287106Y-376411D01*
X-287266Y-376619D01*
X-287452Y-376744D01*
X-288119D01*
G01X-287452D02*
X-287052Y-377953D01*
G01X-285839Y-377661D02*
X-285652Y-377869D01*
X-285439Y-377953D01*
X-285226Y-377869D01*
X-285039Y-377620D01*
X-284906Y-377244D01*
X-284852Y-376869D01*
Y-376411D01*
X-284906Y-376036D01*
X-285039Y-375703D01*
X-285199Y-375536D01*
X-285386Y-375453D01*
X-285599Y-375536D01*
X-285759Y-375703D01*
X-285866Y-375953D01*
X-285919Y-376286D01*
X-285866Y-376578D01*
X-285733Y-376869D01*
X-285572Y-377036D01*
X-285386Y-377078D01*
X-285172Y-376994D01*
X-285013Y-376786D01*
X-284852Y-376411D01*
G01X-280666Y-383583D02*
Y-388583D01*
X-278133D01*
G01X-273033D02*
X-275566D01*
Y-383583D01*
X-273033D01*
G01X-274046Y-385999D02*
X-275566D01*
G01X-270593Y-388583D02*
Y-383583D01*
X-269326D01*
X-268819Y-383833D01*
X-268439Y-384166D01*
X-268122Y-384666D01*
X-267869Y-385250D01*
X-267806Y-386083D01*
X-267869Y-386916D01*
X-268122Y-387500D01*
X-268439Y-388000D01*
X-268819Y-388333D01*
X-269326Y-388583D01*
X-270593D01*
G01X-264099D02*
Y-383583D01*
X-264859Y-384583D01*
G01Y-388583D02*
X-263339D01*
G01X-283802Y-362795D02*
Y-357795D01*
X-282155Y-361962D01*
X-280508Y-357795D01*
Y-362795D01*
G01X-277055D02*
Y-357795D01*
X-277815Y-358795D01*
G01Y-362795D02*
X-276295D01*
G01X-280779Y-372450D02*
X-280654Y-372290D01*
X-280571Y-372103D01*
Y-371890D01*
X-280696Y-371650D01*
X-280904Y-371463D01*
X-281154Y-371330D01*
X-281571Y-371223D01*
X-281946Y-371196D01*
X-282321Y-371250D01*
X-282571Y-371330D01*
X-282821Y-371490D01*
X-282987Y-371676D01*
X-283071Y-371863D01*
Y-372050D01*
X-282987Y-372236D01*
X-282863Y-372396D01*
X-282696Y-372530D01*
G01Y-373476D02*
X-282904Y-373636D01*
X-283029Y-373823D01*
X-283071Y-374063D01*
X-282987Y-374303D01*
X-282821Y-374490D01*
X-282529Y-374623D01*
X-282196Y-374650D01*
X-281863Y-374596D01*
X-281654Y-374463D01*
X-281487Y-374276D01*
X-281446Y-374090D01*
X-281487Y-373903D01*
X-281654Y-373663D01*
X-280571Y-373743D01*
Y-374463D01*
G01X-286752Y-344025D02*
X-284252D01*
Y-342958D01*
G01Y-341291D02*
X-286752D01*
X-286252Y-341611D01*
G01X-284252D02*
Y-340971D01*
G01X-286802Y-346724D02*
X-286962Y-346599D01*
X-287149Y-346516D01*
X-287362D01*
X-287602Y-346641D01*
X-287789Y-346849D01*
X-287922Y-347099D01*
X-288029Y-347516D01*
X-288056Y-347891D01*
X-288002Y-348266D01*
X-287922Y-348516D01*
X-287762Y-348766D01*
X-287576Y-348932D01*
X-287389Y-349016D01*
X-287202D01*
X-287016Y-348932D01*
X-286856Y-348807D01*
X-286722Y-348641D01*
G01X-285696Y-347974D02*
X-285509Y-347682D01*
X-285349Y-347516D01*
X-285136Y-347432D01*
X-284949Y-347516D01*
X-284816Y-347682D01*
X-284709Y-347932D01*
X-284682Y-348224D01*
X-284709Y-348474D01*
X-284816Y-348724D01*
X-284976Y-348932D01*
X-285162Y-349016D01*
X-285376Y-348932D01*
X-285562Y-348683D01*
X-285669Y-348307D01*
X-285696Y-347891D01*
X-285643Y-347349D01*
X-285562Y-347057D01*
X-285429Y-346766D01*
X-285242Y-346557D01*
X-285056Y-346516D01*
X-284869Y-346599D01*
X-284735Y-346807D01*
G01X-285621Y-328023D02*
X-285781Y-327898D01*
X-285968Y-327815D01*
X-286181D01*
X-286421Y-327940D01*
X-286608Y-328148D01*
X-286741Y-328398D01*
X-286848Y-328815D01*
X-286874Y-329190D01*
X-286821Y-329565D01*
X-286741Y-329815D01*
X-286581Y-330065D01*
X-286394Y-330231D01*
X-286208Y-330315D01*
X-286021D01*
X-285835Y-330231D01*
X-285674Y-330107D01*
X-285541Y-329940D01*
G01X-284061Y-330315D02*
X-284008Y-329773D01*
X-283928Y-329315D01*
X-283821Y-328898D01*
X-283688Y-328440D01*
X-283474Y-327815D01*
X-284541D01*
G01X-281881Y-310700D02*
X-282041Y-310576D01*
X-282228Y-310492D01*
X-282441D01*
X-282681Y-310617D01*
X-282868Y-310826D01*
X-283001Y-311076D01*
X-283108Y-311492D01*
X-283134Y-311867D01*
X-283081Y-312242D01*
X-283001Y-312492D01*
X-282841Y-312742D01*
X-282654Y-312909D01*
X-282468Y-312992D01*
X-282281D01*
X-282094Y-312909D01*
X-281934Y-312784D01*
X-281801Y-312617D01*
G01X-280268Y-312992D02*
Y-310492D01*
X-280588Y-310992D01*
G01Y-312992D02*
X-279948D01*
G01X-277748D02*
Y-310492D01*
X-278734Y-312284D01*
X-277401D01*
G01X-281426Y-305512D02*
Y-303012D01*
X-280759D01*
X-280546Y-303137D01*
X-280413Y-303304D01*
X-280359Y-303637D01*
X-280413Y-303970D01*
X-280573Y-304178D01*
X-280759Y-304304D01*
X-281426D01*
G01X-280759D02*
X-280359Y-305512D01*
G01X-278373D02*
Y-303012D01*
X-279359Y-304804D01*
X-278026D01*
G01X-271330Y-378552D02*
X-271206Y-378392D01*
X-271122Y-378206D01*
Y-377992D01*
X-271247Y-377752D01*
X-271456Y-377565D01*
X-271706Y-377432D01*
X-272122Y-377325D01*
X-272497Y-377299D01*
X-272872Y-377352D01*
X-273122Y-377432D01*
X-273372Y-377592D01*
X-273539Y-377779D01*
X-273622Y-377965D01*
Y-378152D01*
X-273539Y-378339D01*
X-273414Y-378499D01*
X-273247Y-378632D01*
G01X-273622Y-380165D02*
X-271122D01*
X-271622Y-379845D01*
G01X-273622D02*
Y-380485D01*
G01X-271122Y-382365D02*
X-271206Y-382152D01*
X-271414Y-381992D01*
X-271664Y-381885D01*
X-271997Y-381806D01*
X-272372Y-381779D01*
X-272747Y-381806D01*
X-273080Y-381885D01*
X-273330Y-381992D01*
X-273539Y-382152D01*
X-273622Y-382365D01*
X-273539Y-382579D01*
X-273330Y-382739D01*
X-273080Y-382845D01*
X-272747Y-382925D01*
X-272372Y-382952D01*
X-271997Y-382925D01*
X-271664Y-382845D01*
X-271414Y-382739D01*
X-271206Y-382579D01*
X-271122Y-382365D01*
G01X-261291Y-332686D02*
X-261166Y-332526D01*
X-261083Y-332339D01*
Y-332126D01*
X-261208Y-331886D01*
X-261416Y-331699D01*
X-261666Y-331566D01*
X-262083Y-331459D01*
X-262458Y-331433D01*
X-262833Y-331486D01*
X-263083Y-331566D01*
X-263333Y-331726D01*
X-263499Y-331913D01*
X-263583Y-332099D01*
Y-332286D01*
X-263499Y-332472D01*
X-263374Y-332633D01*
X-263208Y-332766D01*
G01X-263083Y-333713D02*
X-263374Y-333872D01*
X-263541Y-334086D01*
X-263583Y-334326D01*
X-263541Y-334539D01*
X-263333Y-334753D01*
X-263083Y-334886D01*
X-262833Y-334913D01*
X-262541Y-334859D01*
X-262333Y-334672D01*
X-262249Y-334486D01*
Y-334246D01*
G01Y-334486D02*
X-262124Y-334646D01*
X-261916Y-334779D01*
X-261666Y-334833D01*
X-261416Y-334779D01*
X-261208Y-334646D01*
X-261083Y-334406D01*
X-261124Y-334166D01*
X-261291Y-333926D01*
G01X-251448Y-374812D02*
X-251324Y-374652D01*
X-251240Y-374465D01*
Y-374252D01*
X-251365Y-374012D01*
X-251574Y-373825D01*
X-251824Y-373692D01*
X-252240Y-373585D01*
X-252615Y-373559D01*
X-252990Y-373612D01*
X-253240Y-373692D01*
X-253490Y-373852D01*
X-253657Y-374039D01*
X-253740Y-374225D01*
Y-374412D01*
X-253657Y-374598D01*
X-253532Y-374759D01*
X-253365Y-374892D01*
G01X-253740Y-376425D02*
X-252615D01*
X-251240Y-375892D01*
G01Y-376959D02*
X-252615Y-376425D01*
G01X-253407Y-378065D02*
X-253615Y-378278D01*
X-253740Y-378519D01*
Y-378732D01*
X-253615Y-378945D01*
X-253407Y-379105D01*
X-253115Y-379185D01*
X-252824Y-379132D01*
X-252574Y-378998D01*
X-252407Y-378759D01*
X-252324Y-378439D01*
X-252157Y-378252D01*
X-251865Y-378172D01*
X-251574Y-378225D01*
X-251365Y-378359D01*
X-251240Y-378545D01*
Y-378732D01*
X-251324Y-378919D01*
X-251532Y-379079D01*
G01X-253740Y-380825D02*
X-251240D01*
X-251740Y-380505D01*
G01X-253740D02*
Y-381145D01*
G01X-247629Y-361291D02*
X-247789Y-361166D01*
X-247976Y-361083D01*
X-248189D01*
X-248429Y-361208D01*
X-248616Y-361416D01*
X-248749Y-361666D01*
X-248856Y-362083D01*
X-248882Y-362458D01*
X-248829Y-362833D01*
X-248749Y-363083D01*
X-248589Y-363333D01*
X-248402Y-363499D01*
X-248216Y-363583D01*
X-248029D01*
X-247843Y-363499D01*
X-247682Y-363374D01*
X-247549Y-363208D01*
G01X-246469Y-363291D02*
X-246282Y-363499D01*
X-246069Y-363583D01*
X-245856Y-363499D01*
X-245669Y-363250D01*
X-245536Y-362874D01*
X-245482Y-362499D01*
Y-362041D01*
X-245536Y-361666D01*
X-245669Y-361333D01*
X-245829Y-361166D01*
X-246016Y-361083D01*
X-246229Y-361166D01*
X-246389Y-361333D01*
X-246496Y-361583D01*
X-246549Y-361916D01*
X-246496Y-362207D01*
X-246363Y-362499D01*
X-246202Y-362666D01*
X-246016Y-362708D01*
X-245802Y-362624D01*
X-245643Y-362416D01*
X-245482Y-362041D01*
G01X-253614Y-331505D02*
X-253489Y-331345D01*
X-253406Y-331158D01*
Y-330945D01*
X-253531Y-330705D01*
X-253739Y-330518D01*
X-253989Y-330385D01*
X-254406Y-330278D01*
X-254781Y-330252D01*
X-255156Y-330305D01*
X-255406Y-330385D01*
X-255656Y-330545D01*
X-255822Y-330731D01*
X-255906Y-330918D01*
Y-331105D01*
X-255822Y-331291D01*
X-255697Y-331452D01*
X-255531Y-331585D01*
G01X-255906Y-333438D02*
X-253406D01*
X-255197Y-332452D01*
Y-333785D01*
G01X-249794Y-339047D02*
X-249954Y-338922D01*
X-250141Y-338839D01*
X-250354D01*
X-250594Y-338964D01*
X-250781Y-339172D01*
X-250915Y-339422D01*
X-251021Y-339839D01*
X-251048Y-340214D01*
X-250994Y-340589D01*
X-250915Y-340839D01*
X-250754Y-341089D01*
X-250568Y-341255D01*
X-250381Y-341339D01*
X-250194D01*
X-250008Y-341255D01*
X-249848Y-341130D01*
X-249715Y-340964D01*
G01X-248181Y-341339D02*
Y-340214D01*
X-248715Y-338839D01*
G01X-247648D02*
X-248181Y-340214D01*
G01X-246541Y-341006D02*
X-246328Y-341214D01*
X-246088Y-341339D01*
X-245874D01*
X-245661Y-341214D01*
X-245501Y-341006D01*
X-245421Y-340713D01*
X-245474Y-340422D01*
X-245608Y-340172D01*
X-245848Y-340005D01*
X-246168Y-339922D01*
X-246354Y-339755D01*
X-246435Y-339464D01*
X-246381Y-339172D01*
X-246248Y-338964D01*
X-246061Y-338839D01*
X-245874D01*
X-245688Y-338922D01*
X-245528Y-339130D01*
G01X-244288Y-339255D02*
X-244128Y-339005D01*
X-243941Y-338880D01*
X-243728Y-338839D01*
X-243461Y-338922D01*
X-243274Y-339130D01*
X-243221Y-339380D01*
X-243248Y-339630D01*
X-243354Y-339839D01*
X-243888Y-340255D01*
X-244128Y-340547D01*
X-244288Y-340964D01*
X-244341Y-341339D01*
X-243221D01*
G01X-231623Y-387795D02*
Y-385295D01*
X-230983D01*
X-230770Y-385420D01*
X-230610Y-385712D01*
X-230556Y-386045D01*
X-230610Y-386379D01*
X-230743Y-386629D01*
X-230983Y-386754D01*
X-231623D01*
G01X-228890Y-387795D02*
X-229103Y-387754D01*
X-229290Y-387587D01*
X-229450Y-387337D01*
X-229556Y-387045D01*
X-229610Y-386712D01*
Y-386379D01*
X-229556Y-386045D01*
X-229450Y-385754D01*
X-229290Y-385504D01*
X-229103Y-385337D01*
X-228890Y-385295D01*
X-228676Y-385337D01*
X-228490Y-385504D01*
X-228330Y-385754D01*
X-228223Y-386045D01*
X-228170Y-386379D01*
Y-386712D01*
X-228223Y-387045D01*
X-228330Y-387337D01*
X-228490Y-387587D01*
X-228676Y-387754D01*
X-228890Y-387795D01*
G01X-227223Y-385295D02*
Y-387795D01*
X-226156D01*
G01X-224810Y-385295D02*
X-224170D01*
G01X-224490D02*
Y-387795D01*
G01X-224810D02*
X-224170D01*
G01X-222290Y-385295D02*
Y-387795D01*
G01X-222903Y-385295D02*
X-221676D01*
G01X-219556Y-387795D02*
X-220623D01*
Y-385295D01*
X-219556D01*
G01X-219983Y-386504D02*
X-220623D01*
G01X-217303Y-385504D02*
X-217463Y-385379D01*
X-217650Y-385295D01*
X-217863D01*
X-218103Y-385420D01*
X-218290Y-385629D01*
X-218423Y-385879D01*
X-218530Y-386295D01*
X-218556Y-386670D01*
X-218503Y-387045D01*
X-218423Y-387295D01*
X-218263Y-387545D01*
X-218076Y-387712D01*
X-217890Y-387795D01*
X-217703D01*
X-217517Y-387712D01*
X-217356Y-387587D01*
X-217223Y-387420D01*
G01X-216303Y-387795D02*
Y-385295D01*
X-215076Y-387795D01*
Y-385295D01*
G01X-213810D02*
X-213170D01*
G01X-213490D02*
Y-387795D01*
G01X-213810D02*
X-213170D01*
G01X-210703Y-385504D02*
X-210863Y-385379D01*
X-211050Y-385295D01*
X-211263D01*
X-211503Y-385420D01*
X-211690Y-385629D01*
X-211823Y-385879D01*
X-211930Y-386295D01*
X-211956Y-386670D01*
X-211903Y-387045D01*
X-211823Y-387295D01*
X-211663Y-387545D01*
X-211476Y-387712D01*
X-211290Y-387795D01*
X-211103D01*
X-210917Y-387712D01*
X-210756Y-387587D01*
X-210623Y-387420D01*
G01X-209090Y-387795D02*
X-209303Y-387754D01*
X-209490Y-387587D01*
X-209650Y-387337D01*
X-209756Y-387045D01*
X-209810Y-386712D01*
Y-386379D01*
X-209756Y-386045D01*
X-209650Y-385754D01*
X-209490Y-385504D01*
X-209303Y-385337D01*
X-209090Y-385295D01*
X-208876Y-385337D01*
X-208690Y-385504D01*
X-208530Y-385754D01*
X-208423Y-386045D01*
X-208370Y-386379D01*
Y-386712D01*
X-208423Y-387045D01*
X-208530Y-387337D01*
X-208690Y-387587D01*
X-208876Y-387754D01*
X-209090Y-387795D01*
G01X-205276D02*
Y-385295D01*
X-204743D01*
X-204530Y-385420D01*
X-204370Y-385587D01*
X-204236Y-385837D01*
X-204130Y-386129D01*
X-204103Y-386545D01*
X-204130Y-386962D01*
X-204236Y-387254D01*
X-204370Y-387504D01*
X-204530Y-387670D01*
X-204743Y-387795D01*
X-205276D01*
G01X-202810Y-385295D02*
X-202170D01*
G01X-202490D02*
Y-387795D01*
G01X-202810D02*
X-202170D01*
G01X-198090Y-385295D02*
Y-387795D01*
G01X-198703Y-385295D02*
X-197476D01*
G01X-195890Y-387795D02*
X-196103Y-387754D01*
X-196290Y-387587D01*
X-196450Y-387337D01*
X-196556Y-387045D01*
X-196610Y-386712D01*
Y-386379D01*
X-196556Y-386045D01*
X-196450Y-385754D01*
X-196290Y-385504D01*
X-196103Y-385337D01*
X-195890Y-385295D01*
X-195676Y-385337D01*
X-195490Y-385504D01*
X-195330Y-385754D01*
X-195223Y-386045D01*
X-195170Y-386379D01*
Y-386712D01*
X-195223Y-387045D01*
X-195330Y-387337D01*
X-195490Y-387587D01*
X-195676Y-387754D01*
X-195890Y-387795D01*
G01X-194223D02*
Y-385295D01*
X-193556D01*
X-193343Y-385420D01*
X-193210Y-385587D01*
X-193156Y-385920D01*
X-193210Y-386254D01*
X-193370Y-386462D01*
X-193556Y-386587D01*
X-194223D01*
G01X-193556D02*
X-193156Y-387795D01*
G01X-191810Y-385295D02*
X-191170D01*
G01X-191490D02*
Y-387795D01*
G01X-191810D02*
X-191170D01*
G01X-189903D02*
Y-385295D01*
X-188676Y-387795D01*
Y-385295D01*
G01X-187090Y-387795D02*
X-187303Y-387754D01*
X-187490Y-387587D01*
X-187650Y-387337D01*
X-187756Y-387045D01*
X-187810Y-386712D01*
Y-386379D01*
X-187756Y-386045D01*
X-187650Y-385754D01*
X-187490Y-385504D01*
X-187303Y-385337D01*
X-187090Y-385295D01*
X-186876Y-385337D01*
X-186690Y-385504D01*
X-186530Y-385754D01*
X-186423Y-386045D01*
X-186370Y-386379D01*
Y-386712D01*
X-186423Y-387045D01*
X-186530Y-387337D01*
X-186690Y-387587D01*
X-186876Y-387754D01*
X-187090Y-387795D01*
G01X-235700Y-360048D02*
X-235576Y-359888D01*
X-235492Y-359702D01*
Y-359488D01*
X-235617Y-359248D01*
X-235826Y-359061D01*
X-236076Y-358928D01*
X-236492Y-358821D01*
X-236867Y-358795D01*
X-237242Y-358848D01*
X-237492Y-358928D01*
X-237742Y-359088D01*
X-237909Y-359275D01*
X-237992Y-359461D01*
Y-359648D01*
X-237909Y-359835D01*
X-237784Y-359995D01*
X-237617Y-360128D01*
G01X-237992Y-361661D02*
X-235492D01*
X-235992Y-361341D01*
G01X-237992D02*
Y-361981D01*
G01X-235909Y-363355D02*
X-235659Y-363515D01*
X-235534Y-363702D01*
X-235492Y-363915D01*
X-235576Y-364181D01*
X-235784Y-364368D01*
X-236034Y-364421D01*
X-236284Y-364395D01*
X-236492Y-364288D01*
X-236909Y-363755D01*
X-237200Y-363515D01*
X-237617Y-363355D01*
X-237992Y-363302D01*
Y-364421D01*
G01X-238377Y-345740D02*
X-238537Y-345615D01*
X-238724Y-345531D01*
X-238937D01*
X-239177Y-345657D01*
X-239364Y-345865D01*
X-239497Y-346115D01*
X-239604Y-346531D01*
X-239630Y-346907D01*
X-239577Y-347281D01*
X-239497Y-347531D01*
X-239337Y-347781D01*
X-239150Y-347948D01*
X-238964Y-348031D01*
X-238777D01*
X-238591Y-347948D01*
X-238430Y-347823D01*
X-238297Y-347657D01*
G01X-236764Y-348031D02*
Y-345531D01*
X-237084Y-346031D01*
G01Y-348031D02*
X-236444D01*
G01X-241859Y-353012D02*
Y-355512D01*
X-240793D01*
G01X-239713Y-355012D02*
X-239553Y-355304D01*
X-239339Y-355470D01*
X-239099Y-355512D01*
X-238886Y-355470D01*
X-238672Y-355262D01*
X-238539Y-355012D01*
X-238513Y-354762D01*
X-238566Y-354470D01*
X-238753Y-354262D01*
X-238939Y-354178D01*
X-239179D01*
G01X-238939D02*
X-238779Y-354054D01*
X-238646Y-353845D01*
X-238593Y-353595D01*
X-238646Y-353345D01*
X-238779Y-353137D01*
X-239019Y-353012D01*
X-239259Y-353054D01*
X-239499Y-353220D01*
G01X-232804Y-354980D02*
Y-357480D01*
X-231737D01*
G01X-229751D02*
Y-354980D01*
X-230737Y-356772D01*
X-229404D01*
G01X-238574Y-340031D02*
X-238734Y-339906D01*
X-238920Y-339823D01*
X-239134D01*
X-239374Y-339948D01*
X-239561Y-340156D01*
X-239694Y-340406D01*
X-239801Y-340823D01*
X-239827Y-341198D01*
X-239774Y-341573D01*
X-239694Y-341823D01*
X-239534Y-342073D01*
X-239347Y-342239D01*
X-239161Y-342323D01*
X-238974D01*
X-238787Y-342239D01*
X-238627Y-342115D01*
X-238494Y-341948D01*
G01X-237467Y-340239D02*
X-237307Y-339989D01*
X-237120Y-339865D01*
X-236907Y-339823D01*
X-236641Y-339906D01*
X-236454Y-340115D01*
X-236401Y-340365D01*
X-236427Y-340615D01*
X-236534Y-340823D01*
X-237067Y-341239D01*
X-237307Y-341531D01*
X-237467Y-341948D01*
X-237520Y-342323D01*
X-236401D01*
G01X-243504Y-324479D02*
X-241004D01*
Y-325146D01*
X-241129Y-325359D01*
X-241296Y-325493D01*
X-241629Y-325546D01*
X-241962Y-325493D01*
X-242170Y-325333D01*
X-242296Y-325146D01*
Y-324479D01*
G01Y-325146D02*
X-243504Y-325546D01*
G01X-243004Y-326626D02*
X-243296Y-326786D01*
X-243462Y-326999D01*
X-243504Y-327239D01*
X-243462Y-327453D01*
X-243254Y-327666D01*
X-243004Y-327799D01*
X-242754Y-327826D01*
X-242462Y-327772D01*
X-242254Y-327586D01*
X-242170Y-327399D01*
Y-327159D01*
G01Y-327399D02*
X-242046Y-327559D01*
X-241837Y-327693D01*
X-241587Y-327746D01*
X-241337Y-327693D01*
X-241129Y-327559D01*
X-241004Y-327319D01*
X-241046Y-327079D01*
X-241212Y-326839D01*
G01X-243580Y-300969D02*
X-243264Y-301469D01*
X-242884Y-301802D01*
X-242441Y-301969D01*
X-241934Y-301802D01*
X-241554Y-301469D01*
X-241174Y-300969D01*
X-241047Y-300302D01*
Y-296969D01*
G01X-237214Y-301969D02*
Y-296969D01*
X-237974Y-297969D01*
G01Y-301969D02*
X-236454D01*
G01X-224401Y-355976D02*
X-224561Y-355851D01*
X-224747Y-355768D01*
X-224961D01*
X-225201Y-355893D01*
X-225387Y-356101D01*
X-225521Y-356351D01*
X-225628Y-356768D01*
X-225654Y-357143D01*
X-225601Y-357518D01*
X-225521Y-357768D01*
X-225361Y-358018D01*
X-225174Y-358184D01*
X-224987Y-358268D01*
X-224801D01*
X-224614Y-358184D01*
X-224454Y-358059D01*
X-224321Y-357893D01*
G01X-222787Y-358268D02*
Y-355768D01*
X-223107Y-356268D01*
G01Y-358268D02*
X-222467D01*
G01X-221174Y-357768D02*
X-221014Y-358059D01*
X-220801Y-358226D01*
X-220561Y-358268D01*
X-220347Y-358226D01*
X-220134Y-358018D01*
X-220001Y-357768D01*
X-219974Y-357518D01*
X-220028Y-357226D01*
X-220214Y-357018D01*
X-220401Y-356934D01*
X-220641D01*
G01X-220401D02*
X-220241Y-356809D01*
X-220107Y-356601D01*
X-220054Y-356351D01*
X-220107Y-356101D01*
X-220241Y-355893D01*
X-220481Y-355768D01*
X-220721Y-355809D01*
X-220961Y-355976D01*
G01X-217314Y-354795D02*
X-217474Y-354670D01*
X-217661Y-354587D01*
X-217874D01*
X-218114Y-354712D01*
X-218301Y-354920D01*
X-218434Y-355170D01*
X-218541Y-355587D01*
X-218567Y-355962D01*
X-218514Y-356337D01*
X-218434Y-356587D01*
X-218274Y-356837D01*
X-218087Y-357003D01*
X-217901Y-357087D01*
X-217714D01*
X-217528Y-357003D01*
X-217367Y-356878D01*
X-217234Y-356712D01*
G01X-215701Y-357087D02*
Y-354587D01*
X-216021Y-355087D01*
G01Y-357087D02*
X-215381D01*
G01X-213501D02*
Y-354587D01*
X-213821Y-355087D01*
G01Y-357087D02*
X-213181D01*
G01X-212717Y-317169D02*
X-217717D01*
Y-319702D01*
G01X-217050Y-322206D02*
X-217467Y-322712D01*
X-217717Y-323282D01*
Y-323789D01*
X-217467Y-324295D01*
X-217050Y-324676D01*
X-216467Y-324865D01*
X-215883Y-324739D01*
X-215383Y-324422D01*
X-215050Y-323852D01*
X-214883Y-323092D01*
X-214550Y-322649D01*
X-213967Y-322459D01*
X-213383Y-322585D01*
X-212967Y-322902D01*
X-212717Y-323345D01*
Y-323789D01*
X-212883Y-324232D01*
X-213300Y-324612D01*
G01X-217717Y-328635D02*
X-212717D01*
X-213717Y-327876D01*
G01X-217717D02*
Y-329395D01*
G01X-212922Y-302559D02*
Y-300059D01*
X-212282D01*
X-212069Y-300184D01*
X-211909Y-300476D01*
X-211856Y-300809D01*
X-211909Y-301143D01*
X-212042Y-301393D01*
X-212282Y-301517D01*
X-212922D01*
G01X-210189Y-302559D02*
X-210402Y-302517D01*
X-210589Y-302351D01*
X-210749Y-302101D01*
X-210856Y-301809D01*
X-210909Y-301476D01*
Y-301143D01*
X-210856Y-300809D01*
X-210749Y-300517D01*
X-210589Y-300267D01*
X-210402Y-300101D01*
X-210189Y-300059D01*
X-209976Y-300101D01*
X-209789Y-300267D01*
X-209629Y-300517D01*
X-209522Y-300809D01*
X-209469Y-301143D01*
Y-301476D01*
X-209522Y-301809D01*
X-209629Y-302101D01*
X-209789Y-302351D01*
X-209976Y-302517D01*
X-210189Y-302559D01*
G01X-208576Y-300059D02*
Y-301851D01*
X-208469Y-302226D01*
X-208256Y-302476D01*
X-207989Y-302559D01*
X-207722Y-302476D01*
X-207509Y-302226D01*
X-207402Y-301851D01*
Y-300059D01*
G01X-205789Y-302559D02*
Y-301434D01*
X-206322Y-300059D01*
G01X-205256D02*
X-205789Y-301434D01*
G01X-204256Y-302559D02*
X-203589Y-300059D01*
X-202922Y-302559D01*
G01X-203162Y-301684D02*
X-204016D01*
G01X-202002Y-302559D02*
Y-300059D01*
X-200776Y-302559D01*
Y-300059D01*
G01X-197656Y-302559D02*
X-196989Y-300059D01*
X-196322Y-302559D01*
G01X-196562Y-301684D02*
X-197416D01*
G01X-195349Y-302226D02*
X-195136Y-302434D01*
X-194896Y-302559D01*
X-194682D01*
X-194469Y-302434D01*
X-194309Y-302226D01*
X-194229Y-301934D01*
X-194282Y-301643D01*
X-194416Y-301393D01*
X-194656Y-301226D01*
X-194976Y-301143D01*
X-195162Y-300976D01*
X-195243Y-300684D01*
X-195189Y-300393D01*
X-195056Y-300184D01*
X-194869Y-300059D01*
X-194682D01*
X-194496Y-300143D01*
X-194335Y-300351D01*
G01X-192429Y-301309D02*
X-191896D01*
Y-302059D01*
X-192056Y-302309D01*
X-192242Y-302476D01*
X-192509Y-302559D01*
X-192776Y-302476D01*
X-192962Y-302309D01*
X-193122Y-302059D01*
X-193229Y-301767D01*
X-193282Y-301434D01*
Y-301143D01*
X-193229Y-300893D01*
X-193122Y-300601D01*
X-192962Y-300351D01*
X-192802Y-300184D01*
X-192589Y-300059D01*
X-192402D01*
X-192189Y-300143D01*
X-192029Y-300309D01*
G01X-191056Y-302559D02*
X-190389Y-300059D01*
X-189722Y-302559D01*
G01X-189962Y-301684D02*
X-190816D01*
G01X-188722Y-302559D02*
Y-300059D01*
X-188056D01*
X-187842Y-300184D01*
X-187709Y-300351D01*
X-187656Y-300684D01*
X-187709Y-301017D01*
X-187869Y-301226D01*
X-188056Y-301351D01*
X-188722D01*
G01X-188056D02*
X-187656Y-302559D01*
G01X-186309Y-300059D02*
X-185669D01*
G01X-185989D02*
Y-302559D01*
G01X-186309D02*
X-185669D01*
G01X-217844Y-306693D02*
Y-304193D01*
X-217177D01*
X-216963Y-304318D01*
X-216830Y-304485D01*
X-216777Y-304818D01*
X-216830Y-305151D01*
X-216990Y-305359D01*
X-217177Y-305485D01*
X-217844D01*
G01X-217177D02*
X-216777Y-306693D01*
G01X-214577D02*
X-215644D01*
Y-304193D01*
X-214577D01*
G01X-215004Y-305401D02*
X-215644D01*
G01X-213417Y-304193D02*
X-212404D01*
X-213417Y-306693D01*
X-212404D01*
G01X-211377D02*
X-210710Y-304193D01*
X-210044Y-306693D01*
G01X-210283Y-305818D02*
X-211137D01*
G01X-206897Y-306693D02*
Y-304193D01*
G01X-205883D02*
X-206897Y-305735D01*
G01X-205724Y-306693D02*
X-206444Y-305026D01*
G01X-204670Y-306693D02*
Y-304193D01*
G01X-203550D02*
Y-306693D01*
G01Y-305443D02*
X-204670D01*
G01X-201910Y-306693D02*
X-202124Y-306651D01*
X-202310Y-306485D01*
X-202470Y-306235D01*
X-202577Y-305943D01*
X-202630Y-305609D01*
Y-305276D01*
X-202577Y-304943D01*
X-202470Y-304651D01*
X-202310Y-304401D01*
X-202124Y-304235D01*
X-201910Y-304193D01*
X-201697Y-304235D01*
X-201510Y-304401D01*
X-201350Y-304651D01*
X-201244Y-304943D01*
X-201190Y-305276D01*
Y-305609D01*
X-201244Y-305943D01*
X-201350Y-306235D01*
X-201510Y-306485D01*
X-201697Y-306651D01*
X-201910Y-306693D01*
G01X-200270Y-306360D02*
X-200057Y-306568D01*
X-199817Y-306693D01*
X-199604D01*
X-199390Y-306568D01*
X-199230Y-306360D01*
X-199150Y-306068D01*
X-199204Y-305776D01*
X-199337Y-305526D01*
X-199577Y-305359D01*
X-199897Y-305276D01*
X-200083Y-305109D01*
X-200164Y-304818D01*
X-200110Y-304526D01*
X-199977Y-304318D01*
X-199790Y-304193D01*
X-199604D01*
X-199417Y-304276D01*
X-199257Y-304485D01*
G01X-198070Y-306693D02*
Y-304193D01*
G01X-196950D02*
Y-306693D01*
G01Y-305443D02*
X-198070D01*
G01X-195817Y-304193D02*
X-194804D01*
X-195817Y-306693D01*
X-194804D01*
G01X-193777D02*
X-193110Y-304193D01*
X-192444Y-306693D01*
G01X-192683Y-305818D02*
X-193537D01*
G01X-190697Y-305359D02*
X-190590Y-305235D01*
X-190510Y-305026D01*
X-190457Y-304735D01*
X-190510Y-304485D01*
X-190617Y-304318D01*
X-190804Y-304193D01*
X-191524D01*
Y-306693D01*
X-190644D01*
X-190457Y-306526D01*
X-190350Y-306276D01*
X-190297Y-305985D01*
X-190350Y-305693D01*
X-190510Y-305443D01*
X-190697Y-305359D01*
X-191524D01*
G01X-189377Y-306693D02*
X-188710Y-304193D01*
X-188044Y-306693D01*
G01X-188283Y-305818D02*
X-189137D01*
G01X-187124Y-306693D02*
Y-304193D01*
X-185897Y-306693D01*
Y-304193D01*
G01X-205022Y-381578D02*
X-204862Y-381328D01*
X-204675Y-381203D01*
X-204462Y-381161D01*
X-204195Y-381245D01*
X-204008Y-381453D01*
X-203955Y-381703D01*
X-203981Y-381953D01*
X-204088Y-382161D01*
X-204622Y-382578D01*
X-204862Y-382870D01*
X-205022Y-383287D01*
X-205075Y-383661D01*
X-203955D01*
G01X-201995D02*
Y-381161D01*
X-202981Y-382953D01*
X-201648D01*
G01X-200595Y-383745D02*
X-199635Y-381161D01*
G01X-197595Y-383661D02*
Y-381161D01*
X-198581Y-382953D01*
X-197248D01*
G01X-196195Y-383745D02*
X-195235Y-381161D01*
G01X-194022Y-381578D02*
X-193862Y-381328D01*
X-193675Y-381203D01*
X-193462Y-381161D01*
X-193195Y-381245D01*
X-193008Y-381453D01*
X-192955Y-381703D01*
X-192981Y-381953D01*
X-193088Y-382161D01*
X-193622Y-382578D01*
X-193862Y-382870D01*
X-194022Y-383287D01*
X-194075Y-383661D01*
X-192955D01*
G01X-191315Y-381161D02*
X-191528Y-381245D01*
X-191688Y-381453D01*
X-191795Y-381703D01*
X-191875Y-382037D01*
X-191902Y-382411D01*
X-191875Y-382787D01*
X-191795Y-383120D01*
X-191688Y-383370D01*
X-191528Y-383578D01*
X-191315Y-383661D01*
X-191102Y-383578D01*
X-190942Y-383370D01*
X-190835Y-383120D01*
X-190755Y-382787D01*
X-190728Y-382411D01*
X-190755Y-382037D01*
X-190835Y-381703D01*
X-190942Y-381453D01*
X-191102Y-381245D01*
X-191315Y-381161D01*
G01X-189622Y-381578D02*
X-189462Y-381328D01*
X-189275Y-381203D01*
X-189062Y-381161D01*
X-188795Y-381245D01*
X-188608Y-381453D01*
X-188555Y-381703D01*
X-188581Y-381953D01*
X-188688Y-382161D01*
X-189222Y-382578D01*
X-189462Y-382870D01*
X-189622Y-383287D01*
X-189675Y-383661D01*
X-188555D01*
G01X-187502Y-383161D02*
X-187342Y-383453D01*
X-187128Y-383620D01*
X-186888Y-383661D01*
X-186675Y-383620D01*
X-186461Y-383411D01*
X-186328Y-383161D01*
X-186302Y-382911D01*
X-186355Y-382620D01*
X-186542Y-382411D01*
X-186728Y-382328D01*
X-186968D01*
G01X-186728D02*
X-186568Y-382203D01*
X-186435Y-381995D01*
X-186381Y-381745D01*
X-186435Y-381495D01*
X-186568Y-381287D01*
X-186808Y-381161D01*
X-187048Y-381203D01*
X-187288Y-381370D01*
G01X-204882Y-346885D02*
X-201782Y-347843D01*
X-204882Y-348801D01*
G01X-203797Y-348456D02*
Y-347230D01*
G01X-204882Y-350943D02*
X-201782D01*
X-202402Y-350483D01*
G01X-204882D02*
Y-351403D01*
G01X-206453Y-294352D02*
X-206240Y-294560D01*
X-206000Y-294685D01*
X-205786D01*
X-205573Y-294560D01*
X-205413Y-294352D01*
X-205333Y-294060D01*
X-205386Y-293769D01*
X-205520Y-293519D01*
X-205759Y-293352D01*
X-206080Y-293269D01*
X-206266Y-293102D01*
X-206346Y-292810D01*
X-206293Y-292519D01*
X-206159Y-292310D01*
X-205973Y-292185D01*
X-205786D01*
X-205600Y-292269D01*
X-205439Y-292477D01*
G01X-204359Y-294685D02*
X-203693Y-292185D01*
X-203026Y-294685D01*
G01X-203266Y-293810D02*
X-204120D01*
G01X-202000Y-294685D02*
Y-292185D01*
X-200986D01*
G01X-201359Y-293393D02*
X-202000D01*
G01X-198759Y-294685D02*
X-199826D01*
Y-292185D01*
X-198759D01*
G01X-199186Y-293393D02*
X-199826D01*
G01X-195426Y-292185D02*
Y-294685D01*
X-194359D01*
G01X-193013Y-292185D02*
X-192373D01*
G01X-192693D02*
Y-294685D01*
G01X-193013D02*
X-192373D01*
G01X-190333Y-293435D02*
X-189800D01*
Y-294185D01*
X-189959Y-294435D01*
X-190146Y-294602D01*
X-190413Y-294685D01*
X-190680Y-294602D01*
X-190866Y-294435D01*
X-191026Y-294185D01*
X-191133Y-293893D01*
X-191186Y-293560D01*
Y-293269D01*
X-191133Y-293019D01*
X-191026Y-292727D01*
X-190866Y-292477D01*
X-190706Y-292310D01*
X-190493Y-292185D01*
X-190306D01*
X-190093Y-292269D01*
X-189933Y-292435D01*
G01X-188853Y-294685D02*
Y-292185D01*
G01X-187733D02*
Y-294685D01*
G01Y-293435D02*
X-188853D01*
G01X-186093Y-292185D02*
Y-294685D01*
G01X-186706Y-292185D02*
X-185480D01*
M02*
