G04 ================== begin FILE IDENTIFICATION RECORD ==================*
G04 Layout Name:  C:/SAFELIGHT/LIGHTSENSOR/allegro/SAFELIGHT1_5.brd*
G04 Film Name:    TOP*
G04 File Format:  Gerber RS274X*
G04 File Origin:  Cadence Allegro 17.2-S078*
G04 Origin Date:  Thu Apr 27 18:31:00 2023*
G04 *
G04 Layer:  BOARD GEOMETRY/DESIGN_OUTLINE*
G04 Layer:  ETCH/TOP*
G04 Layer:  PIN/TOP*
G04 Layer:  VIA CLASS/TOP*
G04 *
G04 Offset:    (0.0000 0.0000)*
G04 Mirror:    No*
G04 Mode:      Positive*
G04 Rotation:  0*
G04 FullContactRelief:  No*
G04 UndefLineWidth:     0.0100*
G04 ================== end FILE IDENTIFICATION RECORD ====================*
%FSLAX25Y25*MOIN*%
%IR0*IPPOS*OFA0.00000B0.00000*MIA0B0*SFA1.00000B1.00000*%
%ADD16R,.05413X.074799*%
%ADD21R,.055118X.011811*%
%ADD22R,.051181X.027559*%
%ADD37R,.055118X.027559*%
%ADD17R,.027559X.051181*%
%ADD11C,.023622*%
%ADD24R,.0315X.054331*%
%ADD18R,.01772X.054331*%
%AMMACRO36*
4,1,23,-.015748,-.000004,
-.015748,.000004,
-.01569,-.00068,
-.015512,-.001344,
-.015221,-.001966,
-.014827,-.002529,
-.014341,-.003014,
-.013778,-.003408,
-.013155,-.003698,
-.012491,-.003876,
-.011807,-.003935,
-.011807,-.003933,
.015748,-.003933,
.015748,.003933,
-.011807,.003933,
-.012491,.003876,
-.013155,.003698,
-.013778,.003408,
-.014341,.003014,
-.014827,.002529,
-.015221,.001966,
-.015512,.001344,
-.01569,.00068,
-.015748,-.000004,
0.0*
%
%ADD36MACRO36*%
%ADD42R,.019689X.019689*%
%AMMACRO30*
4,1,24,-.000035,.015748,
-.000024,.015748,
-.000708,.015689,
-.001371,.01551,
-.001993,.015219,
-.002555,.014824,
-.00304,.014337,
-.003433,.013774,
-.003723,.013151,
-.0039,.012487,
-.003958,.011803,
-.003957,.011799,
-.003902,-.015756,
.003965,-.01574,
.003909,.011815,
.003851,.012499,
.003672,.013162,
.003381,.013785,
.002986,.014347,
.002499,.014832,
.001936,.015225,
.001313,.015514,
.000649,.015691,
-.000035,.01575,
-.000035,.015748,
0.0*
%
%ADD30MACRO30*%
%ADD19R,.051181X.02165*%
%ADD14O,.055118X.082681*%
%ADD23R,.03937X.055118*%
%ADD40C,.03937*%
%ADD25R,.027559X.011811*%
%ADD28R,.027559X.031496*%
%ADD15R,.058071X.082681*%
%ADD35C,.04*%
%ADD12R,.07874X.07874*%
%ADD10R,.037402X.027559*%
%ADD20R,.027559X.037402*%
%ADD38R,.04X.04*%
%ADD34R,.11024X.11024*%
%AMMACRO33*
4,1,24,.000039,-.015748,
.000028,-.015748,
.000712,-.015689,
.001375,-.01551,
.001997,-.015218,
.002559,-.014823,
.003044,-.014336,
.003437,-.013773,
.003726,-.013149,
.003902,-.012486,
.003961,-.011801,
.003957,-.011799,
.003898,.015756,
-.003969,.01574,
-.003909,-.011815,
-.003849,-.012499,
-.00367,-.013162,
-.003379,-.013785,
-.002984,-.014347,
-.002497,-.014832,
-.001934,-.015225,
-.001311,-.015514,
-.000647,-.015691,
.000037,-.01575,
.000039,-.015748,
0.0*
%
%ADD33MACRO33*%
%AMMACRO31*
4,1,23,.015748,.000012,
.015748,0.0,
.01569,.000684,
.015513,.001348,
.015223,.001971,
.014829,.002533,
.014343,.003019,
.013781,.003414,
.013158,.003704,
.012495,.003882,
.01181,.003942,
.011803,.003941,
-.015752,.003925,
-.015744,-.003941,
.011811,-.003925,
.012495,-.003868,
.013159,-.003689,
.013781,-.003399,
.014344,-.003005,
.014829,-.002519,
.015223,-.001956,
.015513,-.001333,
.01569,-.000669,
.015748,.000012,
0.0*
%
%ADD31MACRO31*%
%ADD29R,.04724X.055118*%
%ADD26C,.055429*%
%AMMACRO32*
4,1,24,.015748,.000055,
.015748,.000043,
.015688,.000727,
.015508,.00139,
.015216,.002012,
.01482,.002574,
.014333,.003058,
.013769,.00345,
.013146,.003739,
.012482,.003915,
.011797,.003973,
.011795,.003972,
-.01576,.003882,
-.015736,-.003984,
.011819,-.003894,
.012503,-.003836,
.013166,-.003656,
.013788,-.003365,
.01435,-.002969,
.014834,-.002482,
.015227,-.001918,
.015516,-.001295,
.015692,-.000631,
.01575,.000053,
.015748,.000055,
0.0*
%
%ADD32MACRO32*%
%ADD13C,.066*%
%ADD27R,.023618X.019689*%
%ADD39R,.019689X.023618*%
%ADD41R,.019689X.035429*%
%ADD43C,.005906*%
%ADD44C,.009843*%
%ADD45C,.000394*%
G75*
%LPD*%
G75*
G36*
G01X-204094Y-315157D02*
Y-313189D01*
X-186614D01*
Y-323819D01*
X-197008D01*
Y-331693D01*
X-186614D01*
Y-342323D01*
X-197008D01*
Y-350197D01*
X-186614D01*
Y-369882D01*
X-205906D01*
Y-366339D01*
X-188583D01*
Y-360827D01*
X-205906D01*
Y-358858D01*
X-188583D01*
Y-352165D01*
X-198976D01*
Y-340354D01*
X-188583D01*
Y-333661D01*
X-198976D01*
Y-321850D01*
X-188583D01*
Y-315157D01*
X-204094D01*
G37*
G54D10*
X-400984Y-380413D03*
Y-375098D03*
X-350000Y-378445D03*
Y-383760D03*
X-313189Y-368406D03*
Y-363091D03*
X-318504Y-355807D03*
Y-350492D03*
X-278150Y-375295D03*
Y-369980D03*
X-281496Y-345177D03*
Y-339862D03*
X-272244Y-375295D03*
Y-369980D03*
X-258661Y-331004D03*
Y-336319D03*
X-246260Y-328642D03*
Y-323327D03*
G54D20*
X-378642Y-323031D03*
X-373327D03*
X-347539Y-295866D03*
X-342224Y-331890D03*
X-336909D03*
X-342224Y-295866D03*
X-309744Y-380512D03*
Y-374213D03*
X-304429Y-380512D03*
X-304232Y-360630D03*
X-298917D03*
X-304429Y-374213D03*
X-283563Y-380315D03*
X-288878D03*
X-282579Y-314961D03*
X-277264D03*
Y-308268D03*
X-282579D03*
X-243996Y-365945D03*
X-249311D03*
X-249114Y-356102D03*
X-228642Y-359843D03*
X-233957D03*
X-243799Y-356102D03*
G54D11*
X-400984Y-371063D03*
X-380512Y-368504D03*
X-380028Y-364961D03*
X-367717Y-357283D03*
X-361417D03*
X-371260Y-327362D03*
X-367717Y-331693D03*
X-373327Y-319587D03*
X-370268Y-323031D03*
X-350000Y-375386D03*
X-354528Y-330118D03*
X-350197Y-333465D03*
X-346260Y-322244D03*
X-329331Y-380118D03*
X-328425Y-372323D03*
X-331693Y-346457D03*
X-332087Y-354331D03*
X-338386D03*
X-314370Y-380118D03*
X-321850Y-377165D03*
X-314370Y-372244D03*
X-313189Y-331693D03*
X-296850Y-368898D03*
X-308071Y-360630D03*
X-304232Y-364075D03*
X-299213Y-339370D03*
X-294094D03*
X-308465Y-335630D03*
X-293504Y-325787D03*
X-303740D03*
X-278150Y-378543D03*
X-293012Y-366043D03*
X-286417Y-372638D03*
X-291339Y-374409D03*
X-290157Y-347728D03*
X-278346Y-336220D03*
X-292035Y-333071D03*
X-288976Y-337795D03*
X-285638Y-314961D03*
X-272244Y-378543D03*
X-264567Y-384252D03*
X-275197Y-346457D03*
X-266929Y-354331D03*
X-270472D03*
X-263386Y-350787D03*
X-270472D03*
X-266929Y-357874D03*
X-270472D03*
X-263386D03*
Y-354331D03*
X-266929Y-350787D03*
X-261614Y-342520D03*
X-275591D03*
X-273425Y-319882D03*
X-262992Y-325394D03*
X-259055Y-362205D03*
X-244094Y-362598D03*
Y-369488D03*
X-254528Y-371654D03*
X-254331Y-336220D03*
X-246260Y-331890D03*
X-258661Y-326575D03*
X-259252Y-319882D03*
X-236417Y-363780D03*
X-239370Y-366535D03*
X-236024Y-352756D03*
X-233465Y-349803D03*
Y-343898D03*
X-236024Y-340945D03*
X-219882Y-363780D03*
X-225984D03*
X-223031Y-366732D03*
X-210827Y-368110D03*
G54D12*
X-395866Y-347047D03*
Y-337205D03*
G54D30*
X-261417Y-362205D03*
X-262992D03*
X-264567D03*
X-266142D03*
X-267717D03*
X-269291D03*
X-270866D03*
X-272441D03*
G54D21*
X-343898Y-354331D03*
Y-352362D03*
Y-350394D03*
Y-348425D03*
Y-346457D03*
X-326575D03*
Y-348425D03*
Y-350394D03*
Y-352362D03*
Y-354331D03*
G54D13*
X-393071Y-302559D03*
X-373071D03*
X-383071D03*
G54D31*
X-274803Y-359843D03*
G54D40*
X-232756Y-323425D03*
X-222756D03*
G54D22*
X-354528Y-333465D03*
Y-340945D03*
X-313189Y-343110D03*
Y-335630D03*
X-266142Y-336811D03*
Y-329331D03*
G54D41*
X-206890Y-368110D03*
G54D32*
X-274803Y-358268D03*
Y-356693D03*
Y-355118D03*
Y-353543D03*
Y-351969D03*
Y-350394D03*
Y-348819D03*
G54D23*
X-350000Y-308071D03*
X-346260Y-316732D03*
X-353740D03*
G54D14*
X-390157Y-383661D03*
X-359055D03*
G54D33*
X-272441Y-346457D03*
X-270866D03*
X-269291D03*
X-267717D03*
X-266142D03*
X-264567D03*
X-262992D03*
X-261417D03*
G54D15*
X-384301Y-374606D03*
X-364911D03*
G54D42*
X-206890Y-359843D03*
G54D24*
X-321850Y-377165D03*
G54D43*
G01X-342224Y-331890D02*
X-344353D01*
X-353740Y-322502D01*
Y-316732D01*
G01X-303740Y-325787D02*
X-313976D01*
X-320079Y-331890D01*
X-336909D01*
G01X-314370Y-380118D02*
X-317953D01*
G01X-309744Y-380512D02*
Y-380020D01*
X-313583Y-376181D01*
X-317953D01*
G01Y-378150D02*
X-320866D01*
X-321850Y-377165D01*
G01X-274803Y-359843D02*
X-277129Y-359844D01*
X-277133Y-359848D01*
X-283646D01*
X-295252Y-371457D01*
X-307517D01*
X-310569Y-368406D01*
X-313189D01*
G01D02*
X-314370Y-369587D01*
Y-372244D01*
G01X-317953Y-374213D02*
X-315197D01*
X-315189Y-374220D01*
X-313551D01*
X-313543Y-374213D01*
X-309744D01*
G01X-270866Y-362205D02*
X-270861Y-364530D01*
X-272473Y-366142D01*
X-286553D01*
X-300923Y-380512D01*
X-304429D01*
G01Y-374213D02*
X-296260D01*
X-286796Y-364748D01*
X-273794D01*
X-272441Y-363389D01*
Y-362205D01*
G01X-273425Y-319882D02*
X-294094D01*
X-297281Y-323069D01*
Y-324085D01*
X-297372Y-324176D01*
Y-338415D01*
X-297236Y-338551D01*
Y-340189D01*
X-297372Y-340325D01*
Y-353612D01*
X-294284Y-356700D01*
X-277174D01*
X-274803Y-356693D01*
G01X-277264Y-314961D02*
X-273425D01*
X-270276Y-318110D01*
Y-321259D01*
X-271260Y-322244D01*
X-293898D01*
X-296281Y-324628D01*
Y-337963D01*
X-296146Y-338099D01*
Y-340641D01*
X-296281Y-340777D01*
Y-352537D01*
X-293406Y-355413D01*
X-280932D01*
X-280637Y-355118D01*
X-274803D01*
G01X-286417Y-372638D02*
X-283563Y-375492D01*
Y-380315D01*
G01X-278150Y-375295D02*
Y-378543D01*
G01X-293012Y-366043D02*
X-285244Y-358275D01*
X-277129D01*
X-274803Y-358268D01*
G01X-278150Y-369980D02*
X-277657D01*
X-274909Y-367232D01*
X-272021D01*
X-269291Y-364503D01*
Y-362205D01*
G01X-281496Y-345177D02*
Y-347306D01*
X-278408Y-350394D01*
X-274803D01*
G01X-282677Y-351969D02*
X-274803D01*
G01X-294094Y-339370D02*
X-282677Y-350787D01*
Y-351969D01*
G01X-281496Y-339862D02*
X-279626D01*
X-277941Y-341547D01*
Y-343713D01*
X-275197Y-346457D01*
G01X-290157Y-351969D02*
Y-347728D01*
G01X-278346Y-336220D02*
Y-329331D01*
X-280118Y-327559D01*
X-291339D01*
X-294094Y-330315D01*
Y-339370D01*
G01X-281496Y-333071D02*
Y-339862D01*
G01X-292035Y-333071D02*
X-288976D01*
G01Y-337795D02*
Y-333071D01*
G01X-275591Y-342520D02*
Y-328150D01*
X-277953Y-325787D01*
X-293504D01*
G01X-282579Y-314961D02*
X-285638D01*
G01X-272244Y-375295D02*
Y-378543D01*
G01X-264567Y-380315D02*
Y-384252D01*
G01X-272244Y-369980D02*
Y-369033D01*
X-267717Y-364506D01*
Y-362205D01*
G01X-249311Y-365945D02*
X-258845D01*
X-261415Y-363386D01*
X-261417Y-362205D01*
G01X-266142D02*
Y-358661D01*
X-266929Y-357874D01*
G01X-258268Y-380315D02*
X-252862D01*
X-251969Y-379421D01*
Y-370472D01*
X-255315Y-367126D01*
X-260827D01*
X-262992Y-364961D01*
Y-362205D01*
G01X-264567Y-371654D02*
Y-362205D01*
G01X-222756Y-323425D02*
Y-333780D01*
X-227559Y-338583D01*
X-254758D01*
X-261420Y-345275D01*
X-261417Y-346457D01*
G01X-267717D02*
Y-341930D01*
X-269882Y-339763D01*
Y-327632D01*
X-257013Y-314764D01*
X-251088D01*
X-247480Y-311156D01*
Y-308406D01*
G01X-269291Y-346457D02*
X-269296Y-344131D01*
X-269298Y-344129D01*
Y-342119D01*
X-271472Y-339945D01*
Y-327398D01*
X-252480Y-308406D01*
G01X-257480D02*
Y-311863D01*
X-272835Y-327217D01*
Y-340551D01*
X-270873Y-342513D01*
Y-344129D01*
X-270871Y-344131D01*
X-270866Y-346457D01*
G01X-272441D02*
X-272446Y-343952D01*
Y-342482D01*
X-274393Y-340535D01*
Y-327233D01*
X-262480Y-315320D01*
Y-308406D01*
G01X-261614Y-342520D02*
X-262992Y-343898D01*
Y-346457D01*
G01X-258661Y-336319D02*
X-259055D01*
X-264567Y-341831D01*
Y-346457D01*
G01X-259055Y-356693D02*
X-262205D01*
X-263386Y-357874D01*
G01X-259055Y-350394D02*
X-262992D01*
X-263386Y-350787D01*
G01X-274803Y-353543D02*
X-271260D01*
X-270472Y-354331D01*
G01Y-350787D02*
X-271257D01*
X-273233Y-348818D01*
X-273664Y-348819D01*
X-274803D01*
G01X-266142Y-336811D02*
Y-346457D01*
G01Y-329331D02*
Y-326612D01*
X-264924Y-325394D01*
X-262992D01*
G01X-277264Y-314961D02*
Y-308268D01*
G01D02*
X-270369D01*
X-270231Y-308406D01*
X-267480D01*
G01X-249311Y-365945D02*
Y-364915D01*
X-252060Y-362166D01*
X-257085D01*
X-257124Y-362205D01*
X-259055D01*
G01X-258268Y-371654D02*
X-254528D01*
G01X-239961Y-349803D02*
X-247244D01*
G01D02*
X-252165D01*
X-255906Y-353543D01*
X-259055D01*
G01X-247244Y-343898D02*
X-254294D01*
X-255709Y-345313D01*
Y-350984D01*
X-256693Y-351969D01*
X-259055D01*
G01X-247244Y-343898D02*
X-239961D01*
G01X-246260Y-328642D02*
Y-331890D01*
G01X-258661Y-331004D02*
Y-326575D01*
G01X-246260Y-323327D02*
X-235573D01*
X-235475Y-323425D01*
X-232756D01*
G01X-259252Y-319882D02*
X-254331D01*
X-250886Y-323327D01*
X-246260D01*
G01X-244094Y-362598D02*
Y-365846D01*
X-243996Y-365945D01*
G01X-244094Y-369488D02*
Y-366043D01*
X-243996Y-365945D01*
G01X-236417Y-363780D02*
X-239370D01*
G01Y-366535D02*
Y-363780D01*
G01X-236024Y-352756D02*
Y-349803D01*
G01X-233465D02*
X-236024D01*
G01Y-343898D02*
Y-340945D01*
G01Y-343898D02*
X-233465D01*
G01X-219882Y-363780D02*
X-223031D01*
G01X-225984D02*
X-223031D01*
G01Y-366732D02*
Y-363780D01*
G01X-210827Y-368110D02*
X-206890D01*
G54D34*
X-266929Y-354331D03*
G54D25*
X-317953Y-376181D03*
Y-378150D03*
Y-380118D03*
X-325748D03*
Y-378150D03*
Y-376181D03*
X-317953Y-374213D03*
X-325748D03*
G54D16*
X-378297Y-383661D03*
X-370915D03*
G54D44*
G01X-400984Y-380413D02*
X-400492D01*
X-397244Y-383661D01*
X-390157D01*
G01X-400984Y-375098D02*
Y-371063D01*
G01X-375984Y-349016D02*
X-389210D01*
X-391179Y-347047D01*
X-395866D01*
G01Y-337205D02*
X-383071D01*
X-378740Y-332874D01*
G01X-380512Y-368504D02*
X-379724Y-369291D01*
Y-373189D01*
G01X-380028Y-364961D02*
X-376969D01*
G01X-367717Y-357283D02*
X-373531D01*
X-375984Y-354831D01*
Y-352756D01*
G01X-378740Y-331693D02*
Y-332874D01*
G01X-378642Y-323031D02*
Y-325652D01*
X-378740Y-325750D01*
Y-331693D01*
G01Y-332874D02*
Y-337402D01*
X-376181Y-339961D01*
X-367126D01*
X-364567Y-342520D01*
Y-345276D01*
G01X-383071Y-302559D02*
Y-318110D01*
X-378642Y-322539D01*
Y-323031D01*
G01X-369488Y-364961D02*
Y-373189D01*
G01Y-364961D02*
X-367118D01*
X-364567Y-362409D01*
Y-352756D01*
G01Y-345276D02*
X-360694D01*
X-329756Y-376213D01*
G01X-288878Y-380315D02*
X-297154D01*
X-300906Y-384068D01*
X-329515D01*
X-360827Y-352756D01*
X-364567D01*
G01X-289370Y-386417D02*
X-332283D01*
X-361417Y-357283D01*
G01X-373071Y-302559D02*
X-362402Y-313228D01*
Y-334252D01*
X-355709Y-340945D01*
X-354528D01*
G01X-371260Y-331693D02*
X-367717D01*
G01X-371260D02*
Y-327362D01*
G01X-373327Y-323031D02*
Y-319587D01*
G01Y-323031D02*
X-370268D01*
G01X-347539Y-295866D02*
X-366378D01*
X-373071Y-302559D01*
G01X-359055Y-383661D02*
X-355307D01*
X-355209Y-383760D01*
X-350000D01*
G01Y-378445D02*
Y-375386D01*
G01X-343898Y-352362D02*
Y-350394D01*
G01D02*
Y-348425D01*
G01X-354528Y-340945D02*
Y-346654D01*
X-348819Y-352362D01*
X-343898D01*
G01Y-348425D02*
X-347646D01*
X-349016Y-347055D01*
Y-342906D01*
X-350976Y-340945D01*
X-354528D01*
G01X-343898Y-354331D02*
X-338386D01*
G01X-354528Y-333465D02*
X-350197D01*
G01X-354528D02*
Y-330118D01*
G01X-346260Y-316732D02*
Y-322244D01*
G01X-322244Y-323622D02*
X-337795Y-308071D01*
X-350000D01*
G01X-325748Y-378150D02*
X-328118D01*
X-329756Y-376511D01*
Y-376213D01*
G01D02*
X-329724Y-376181D01*
X-325748D01*
G01Y-380118D02*
X-329331D01*
G01X-328425Y-372323D02*
X-326535Y-374213D01*
X-325748D01*
G01X-326575Y-346457D02*
X-331693D01*
G01X-326575Y-354331D02*
X-332087D01*
G01X-342224Y-295866D02*
X-334252D01*
X-322244Y-307874D01*
G01X-313189Y-363091D02*
Y-343110D01*
G01D02*
X-317126D01*
X-322441Y-348425D01*
X-326575D01*
G01X-312103Y-343015D02*
X-308268Y-346850D01*
Y-350000D01*
G01X-326575Y-350394D02*
X-321465D01*
X-321366Y-350492D01*
X-318504D01*
G01X-326575Y-352362D02*
X-322441D01*
X-318996Y-355807D01*
X-318504D01*
G01X-247480Y-303406D02*
Y-300413D01*
X-251043Y-296850D01*
X-284843D01*
X-300984Y-312992D01*
Y-336024D01*
X-307976Y-343015D01*
X-312103D01*
G01D02*
X-313094D01*
X-313189Y-343110D01*
G01Y-335630D02*
Y-331693D01*
G01Y-335630D02*
X-308465D01*
G01X-322047Y-323819D02*
X-322244Y-323622D01*
G01X-322047Y-308071D02*
X-322244Y-307874D01*
G01X-299213Y-359210D02*
Y-360335D01*
X-298917Y-360630D01*
G01X-296850Y-368898D02*
X-298917Y-366831D01*
Y-360630D01*
G01X-304232D02*
X-308071D01*
G01X-304232D02*
Y-364075D01*
G01X-299213Y-339370D02*
Y-359210D01*
G01D02*
X-304485Y-353937D01*
X-308268D01*
G01X-282579Y-308268D02*
X-287992D01*
X-299213Y-319488D01*
Y-339370D01*
G01X-283563Y-380315D02*
Y-383752D01*
X-283465Y-383850D01*
Y-386417D01*
G01X-288878Y-380315D02*
X-288780D01*
G01X-278150Y-369980D02*
X-286909D01*
X-291339Y-374409D01*
G01X-249311Y-365945D02*
Y-383169D01*
X-252756Y-386614D01*
X-266339D01*
X-268701Y-384252D01*
Y-371654D01*
X-270374Y-369980D01*
X-272244D01*
G01X-259055Y-359843D02*
X-239370D01*
G01X-249114Y-356102D02*
X-254528D01*
X-256730Y-358305D01*
X-259018D01*
X-259055Y-358268D01*
G01X-258661Y-336319D02*
X-254429D01*
X-254331Y-336220D01*
G01X-239370Y-359843D02*
X-233957D01*
G01X-243799Y-356102D02*
X-241133D01*
X-239370Y-357866D01*
Y-359843D01*
G01X-228642D02*
X-223031D01*
G01D02*
X-217913D01*
G01X-213976D02*
X-206890D01*
G01D02*
X-205709D01*
G54D26*
X-322244Y-307874D03*
Y-323622D03*
G54D35*
X-267480Y-303406D03*
X-262480Y-308406D03*
Y-303406D03*
X-267480Y-308406D03*
X-257480D03*
Y-303406D03*
X-252480Y-308406D03*
Y-303406D03*
X-247480Y-308406D03*
G54D17*
X-376969Y-364961D03*
X-378740Y-331693D03*
X-369488Y-364961D03*
X-371260Y-331693D03*
X-290157Y-351969D03*
X-282677D03*
X-288976Y-333071D03*
X-281496D03*
G54D45*
G01X-409449Y-290748D02*
Y-389370D01*
X-180512D01*
Y-290748D01*
X-409449D01*
G54D27*
X-308268Y-353937D03*
Y-350000D03*
X-239370Y-363780D03*
Y-359843D03*
X-223031Y-363780D03*
Y-359843D03*
G54D36*
X-259055Y-348819D03*
Y-350394D03*
Y-351969D03*
Y-353543D03*
Y-355118D03*
Y-356693D03*
Y-358268D03*
Y-359843D03*
G54D18*
X-379724Y-373189D03*
X-377165D03*
X-374606D03*
X-372047D03*
X-369488D03*
G54D28*
X-283465Y-386417D03*
X-289370D03*
G54D19*
X-375984Y-352756D03*
Y-349016D03*
Y-345276D03*
X-364567D03*
Y-352756D03*
G54D37*
X-247244Y-343898D03*
Y-349803D03*
G54D29*
X-264567Y-380315D03*
Y-371654D03*
X-258268Y-380315D03*
Y-371654D03*
G54D38*
X-247480Y-303406D03*
G54D39*
X-236024Y-349803D03*
X-239961D03*
X-236024Y-343898D03*
X-239961D03*
X-213976Y-359843D03*
X-217913D03*
M02*
